<svg width="48" height="48" viewBox="0 0 48 48" fill="none" xmlns="http://www.w3.org/2000/svg">
<path fill-rule="evenodd" clip-rule="evenodd" d="M22.7982 1.33615C23.5411 0.91928 24.4558 0.91928 25.1976 1.33615C28.8682 3.39653 39.9141 9.59865 43.5857 11.659C44.3286 12.0748 44.7859 12.8452 44.7859 13.6789C44.7859 17.7998 44.7859 30.2028 44.7859 34.3235C44.7859 35.1574 44.3286 35.9277 43.5857 36.3445C39.9151 38.405 28.8693 44.607 25.1976 46.6674C24.4547 47.0843 23.5401 47.0843 22.7982 46.6674C19.1276 44.607 8.08181 38.405 4.41006 36.3445C3.66831 35.9277 3.21094 35.1584 3.21094 34.3247C3.21094 30.2038 3.21094 17.8009 3.21094 13.68C3.21094 12.8463 3.66831 12.0759 4.41119 11.659C8.08069 9.59865 19.1287 3.39653 22.7982 1.33615Z" fill="#283593"/>
<path fill-rule="evenodd" clip-rule="evenodd" d="M3.54356 35.3858C3.25256 34.9963 3.21094 34.6264 3.21094 34.1286C3.21094 30.0318 3.21094 17.6999 3.21094 13.6022C3.21094 12.7727 3.66719 12.0068 4.40794 11.5932C8.06544 9.5448 19.0741 3.3788 22.7316 1.32943C23.4722 0.914677 24.4754 0.923427 25.2162 1.33818C28.8737 3.38655 39.8451 9.49993 43.5026 11.5483C43.7979 11.7146 44.0233 11.9148 44.2247 12.1786L3.54356 35.3858Z" fill="#5C6BC0"/>
<path fill-rule="evenodd" clip-rule="evenodd" d="M23.9988 8.6825C32.4528 8.6825 39.3159 15.5465 39.3159 24.0015C39.3159 32.4565 32.4528 39.3206 23.9988 39.3206C15.5449 39.3206 8.68164 32.4565 8.68164 24.0015C8.68164 15.5465 15.5449 8.6825 23.9988 8.6825ZM23.9988 16.342C28.2251 16.342 31.6573 19.7735 31.6573 24.0015C31.6573 28.2285 28.2251 31.661 23.9988 31.661C19.7724 31.661 16.3403 28.2285 16.3403 24.0015C16.3403 19.7735 19.7713 16.342 23.9988 16.342Z" fill="white"/>
<path fill-rule="evenodd" clip-rule="evenodd" d="M44.222 12.1891C44.7866 12.7176 44.7756 13.5141 44.7756 14.1411C44.7756 18.2937 44.7406 30.1047 44.7855 34.2572C44.7899 34.6906 44.6465 35.1468 44.4321 35.4905L23.5527 24.0011L44.222 12.1891Z" fill="#3949AB"/>
</svg>
