<svg width="42" height="41" viewBox="0 0 42 41" fill="none" xmlns="http://www.w3.org/2000/svg">
<g clip-path="url(#clip0_703_417)">
<path d="M7.4375 0H34.5625C38.675 0 42 3.30025 42 7.38213V33.263C42 37.3449 38.675 40.6452 34.5625 40.6452H7.4375C3.325 40.6452 0 37.3449 0 33.263V7.38213C0 3.30025 3.325 0 7.4375 0Z" fill="#330000"/>
<path d="M20.3001 24.3176H13.7901L12.4601 28.3995C12.4251 28.5558 12.2851 28.66 12.1276 28.6427H8.83765C8.64515 28.6427 8.59265 28.5384 8.64515 28.33L14.2801 12.2283C14.3326 12.0546 14.3851 11.8635 14.4551 11.6551C14.5251 11.2903 14.5601 10.9082 14.5601 10.526C14.5426 10.4392 14.6126 10.3523 14.7001 10.335H14.7526H19.2326C19.3726 10.335 19.4426 10.3871 19.4601 10.4739L25.8476 28.3647C25.9001 28.5558 25.8476 28.6427 25.6726 28.6427H22.0151C21.8926 28.66 21.7701 28.5732 21.7351 28.4516L20.3001 24.3176ZM14.8051 20.7915H19.2501C19.1451 20.4268 19.0051 19.9925 18.8476 19.5409C18.6901 19.0719 18.5326 18.5682 18.3751 18.0471C18.2001 17.5087 18.0426 16.9876 17.8676 16.4491C17.6926 15.9106 17.5351 15.4069 17.3951 14.9032C17.2551 14.4168 17.1326 13.9652 17.0101 13.5484H16.9751C16.8176 14.2953 16.6251 15.0422 16.3801 15.7891C16.1176 16.6228 15.8551 17.4913 15.5751 18.3598C15.3301 19.2456 15.0676 20.062 14.8051 20.7915Z" fill="#FF9A00"/>
<path d="M29.7502 13.3747C29.1727 13.3921 28.6127 13.1663 28.1927 12.7668C27.7902 12.3325 27.5802 11.7593 27.5977 11.1687C27.5802 10.5782 27.8077 10.0223 28.2277 9.62283C28.6477 9.22333 29.2077 9.01489 29.7852 9.01489C30.4677 9.01489 30.9927 9.22333 31.3777 9.62283C31.7627 10.0397 31.9727 10.5955 31.9552 11.1687C31.9727 11.7593 31.7627 12.3325 31.3427 12.7668C30.9402 13.1836 30.3452 13.4094 29.7502 13.3747ZM27.7902 28.4516V15.0769C27.7902 14.9032 27.8602 14.8338 28.0177 14.8338H31.4827C31.6402 14.8338 31.7102 14.9206 31.7102 15.0769V28.4516C31.7102 28.6427 31.6402 28.7295 31.4827 28.7295H28.0527C27.8777 28.7295 27.7902 28.6253 27.7902 28.4516Z" fill="#FF9A00"/>
</g>
<defs>
<clipPath id="clip0_703_417">
<rect width="42" height="40.6452" fill="white"/>
</clipPath>
</defs>
</svg>
