<svg width="42" height="41" viewBox="0 0 42 41" fill="none" xmlns="http://www.w3.org/2000/svg">
<g clip-path="url(#clip0_703_433)">
<path d="M7.4375 0H34.5625C38.675 0 42 3.30025 42 7.38213V33.263C42 37.3449 38.675 40.6452 34.5625 40.6452H7.4375C3.325 40.6452 0 37.3449 0 33.263V7.38213C0 3.30025 3.325 0 7.4375 0Z" fill="#00005B"/>
<path d="M16.8705 24.3176H10.3605L9.03046 28.4169C8.99546 28.5732 8.85546 28.6774 8.69796 28.6601H5.40796C5.21546 28.6601 5.16296 28.5559 5.21546 28.3474L10.8505 12.3152C10.903 12.1415 10.9555 11.9851 11.0255 11.7767C11.0955 11.4119 11.1305 11.0298 11.1305 10.6477C11.113 10.5608 11.183 10.474 11.2705 10.4566H11.323H15.803C15.9255 10.4566 16.013 10.5087 16.0305 10.5956L22.418 28.3127C22.4705 28.5038 22.418 28.5906 22.243 28.5906H18.5855C18.463 28.608 18.3405 28.5211 18.3055 28.3995L16.8705 24.2308V24.3176ZM11.3755 20.8611H15.8205C15.7155 20.4963 15.5755 20.0621 15.418 19.6105C15.2605 19.1415 15.103 18.6377 14.9455 18.1167C14.7705 17.5782 14.613 17.0571 14.438 16.5186C14.263 15.9802 14.1055 15.4765 13.9655 14.9727C13.8255 14.4864 13.703 14.0348 13.5805 13.6179H13.5455C13.388 14.3648 13.1955 15.1117 12.9505 15.8586C12.688 16.6923 12.4255 17.5608 12.1455 18.4293C11.918 19.3152 11.638 20.1315 11.3755 20.8611Z" fill="#9999FF"/>
<path d="M32.7252 22.7544H27.1777C27.2477 23.2928 27.4227 23.8313 27.7202 24.3003C28.0352 24.7693 28.4727 25.134 28.9977 25.3425C29.6977 25.6378 30.4677 25.7941 31.2377 25.7767C31.8502 25.7593 32.4627 25.7072 33.0577 25.5857C33.6002 25.5162 34.1252 25.3772 34.6152 25.1861C34.7027 25.1167 34.7552 25.1514 34.7552 25.3251V27.9827C34.7552 28.0522 34.7377 28.1216 34.7202 28.1911C34.6852 28.2432 34.6502 28.278 34.5977 28.3127C34.0377 28.5559 33.4602 28.7296 32.8477 28.8338C32.0252 28.9901 31.2027 29.0596 30.3627 29.0422C29.0327 29.0422 27.9127 28.8338 27.0027 28.4343C26.1452 28.0695 25.3927 27.4963 24.7977 26.7842C24.2377 26.1067 23.8352 25.3425 23.5902 24.5087C23.3452 23.6924 23.2227 22.8412 23.2227 21.9727C23.2227 21.0348 23.3627 20.1142 23.6602 19.211C23.9402 18.3425 24.3777 17.5435 24.9727 16.8313C25.5502 16.1365 26.2677 15.5807 27.0902 15.1812C27.9127 14.7817 28.8927 14.6427 30.0127 14.6427C30.9402 14.6254 31.8677 14.7991 32.7252 15.1812C33.4427 15.4938 34.0727 15.9628 34.5627 16.5708C35.0177 17.1613 35.3852 17.8214 35.6127 18.5509C35.8402 19.2457 35.9452 19.9579 35.9452 20.67C35.9452 21.0869 35.9277 21.4517 35.9102 21.7817C35.8752 22.1117 35.8577 22.3549 35.8402 22.5112C35.8227 22.6328 35.7177 22.737 35.5952 22.737C35.4902 22.737 35.2977 22.7544 35.0177 22.7718C34.7377 22.8065 34.4052 22.8239 34.0027 22.8239C33.6002 22.8239 33.1802 22.7544 32.7252 22.7544ZM27.1777 20.2184H30.8702C31.3252 20.2184 31.6577 20.2184 31.8677 20.201C32.0077 20.1837 32.1477 20.1489 32.2702 20.0621V19.8884C32.2702 19.6626 32.2352 19.4541 32.1652 19.2457C31.8502 18.273 30.9227 17.6129 29.8902 17.6477C28.9277 17.5956 28.0177 18.0993 27.5627 18.9678C27.3527 19.3673 27.2302 19.7842 27.1777 20.2184Z" fill="#9999FF"/>
</g>
<defs>
<clipPath id="clip0_703_433">
<rect width="42" height="40.6452" fill="white"/>
</clipPath>
</defs>
</svg>
