<svg width="42" height="42" viewBox="0 0 42 42" fill="none" xmlns="http://www.w3.org/2000/svg">
<g clip-path="url(#clip0_703_455)">
<path d="M7.4375 0H34.5625C38.675 0 42 3.34339 42 7.47863V33.6978C42 37.8331 38.675 41.1765 34.5625 41.1765H7.4375C3.325 41.1765 0 37.8331 0 33.6978V7.47863C0 3.34339 3.325 0 7.4375 0Z" fill="#001E36"/>
<path d="M9.4502 28.8763V10.7692C9.4502 10.6461 9.5027 10.5757 9.6252 10.5757C9.9227 10.5757 10.2027 10.5757 10.6052 10.5581C11.0252 10.5405 11.4627 10.5405 11.9352 10.5229C12.4077 10.5053 12.9152 10.5053 13.4577 10.4877C14.0002 10.4701 14.5252 10.4701 15.0502 10.4701C16.4852 10.4701 17.6752 10.6461 18.6552 11.0156C19.5302 11.3147 20.3352 11.8074 21.0002 12.4585C21.5602 13.0216 21.9977 13.7079 22.2777 14.4646C22.5402 15.2036 22.6802 15.9603 22.6802 16.7521C22.6802 18.2655 22.3302 19.5148 21.6302 20.5003C20.9302 21.4857 19.9502 22.2247 18.8127 22.6471C17.6227 23.087 16.3102 23.2454 14.8752 23.2454C14.4552 23.2454 14.1752 23.2454 14.0002 23.2278C13.8252 23.2102 13.5802 23.2102 13.2477 23.2102V28.8587C13.2652 28.9819 13.1777 29.0875 13.0552 29.1051C13.0377 29.1051 13.0202 29.1051 12.9852 29.1051H9.6602C9.5202 29.1051 9.4502 29.0347 9.4502 28.8763ZM13.2652 13.9719V19.8844C13.5102 19.902 13.7377 19.9196 13.9477 19.9196H14.8752C15.5577 19.9196 16.2402 19.814 16.8877 19.6028C17.4477 19.4445 17.9377 19.1101 18.3227 18.6702C18.6902 18.2303 18.8652 17.632 18.8652 16.8577C18.8827 16.3122 18.7427 15.7667 18.4627 15.2916C18.1652 14.8341 17.7452 14.4822 17.2377 14.2886C16.5902 14.0246 15.8902 13.9191 15.1727 13.9367C14.7177 13.9367 14.3152 13.9367 13.9827 13.9543C13.6327 13.9367 13.3877 13.9543 13.2652 13.9719Z" fill="#31A8FF"/>
<path d="M33.6005 18.811C33.0755 18.5294 32.5155 18.3359 31.9205 18.2127C31.273 18.0719 30.6255 17.9839 29.9605 17.9839C29.6105 17.9663 29.243 18.0191 28.9105 18.1071C28.683 18.1599 28.4905 18.2831 28.368 18.459C28.2805 18.5998 28.228 18.7758 28.228 18.9342C28.228 19.0925 28.298 19.2509 28.403 19.3917C28.5605 19.5852 28.7705 19.7436 28.998 19.8668C29.4005 20.0779 29.8205 20.2715 30.2405 20.4475C31.1855 20.7642 32.0955 21.2041 32.9355 21.732C33.513 22.1016 33.9855 22.5943 34.318 23.1926C34.598 23.7557 34.738 24.3716 34.7205 25.005C34.738 25.8321 34.493 26.6591 34.038 27.3454C33.548 28.0493 32.8655 28.5948 32.078 28.9115C31.2205 29.2811 30.1705 29.4746 28.9105 29.4746C28.1055 29.4746 27.318 29.4042 26.5305 29.2459C25.918 29.1403 25.3055 28.9467 24.7455 28.6828C24.623 28.6124 24.5355 28.4892 24.553 28.3484V25.2866C24.553 25.2338 24.5705 25.1634 24.623 25.1282C24.6755 25.093 24.728 25.1106 24.7805 25.1458C25.463 25.5505 26.1805 25.8321 26.9505 26.0081C27.6155 26.184 28.3155 26.272 29.0155 26.272C29.6805 26.272 30.153 26.184 30.468 26.0257C30.748 25.9025 30.9405 25.6033 30.9405 25.2866C30.9405 25.0402 30.8005 24.8115 30.5205 24.5827C30.2405 24.354 29.663 24.09 28.8055 23.7557C27.913 23.4389 27.0905 23.0166 26.3205 22.4887C25.778 22.1016 25.323 21.5913 24.9905 20.993C24.7105 20.4299 24.5705 19.814 24.588 19.1981C24.588 18.4414 24.798 17.72 25.183 17.0689C25.6205 16.365 26.268 15.8019 27.0205 15.45C27.843 15.0277 28.8755 14.8341 30.118 14.8341C30.8355 14.8341 31.5705 14.8869 32.288 14.9925C32.813 15.0629 33.3205 15.2036 33.793 15.3972C33.863 15.4148 33.933 15.4852 33.968 15.5556C33.9855 15.626 34.003 15.6963 34.003 15.7667V18.635C34.003 18.7054 33.968 18.7758 33.9155 18.811C33.758 18.8462 33.6705 18.8462 33.6005 18.811Z" fill="#31A8FF"/>
</g>
<defs>
<clipPath id="clip0_703_455">
<rect width="42" height="41.1765" fill="white"/>
</clipPath>
</defs>
</svg>
