<svg width="42" height="34" viewBox="0 0 42 34" fill="none" xmlns="http://www.w3.org/2000/svg">
<g clip-path="url(#clip0_507_161)">
<path fill-rule="evenodd" clip-rule="evenodd" d="M8.72353 0.00460815C6.32707 0.00460815 4.5538 2.13564 4.63321 4.44669C4.70941 6.66699 4.6104 9.54259 3.89788 11.8876C3.18281 14.2393 1.97433 15.7295 0 15.9208V18.0803C1.97433 18.272 3.18281 19.7615 3.8978 22.1134C4.6104 24.4585 4.70933 27.3341 4.63312 29.5544C4.55372 31.8651 6.32699 33.9965 8.72386 33.9965H33.2797C35.6761 33.9965 37.4491 31.8654 37.3697 29.5544C37.2935 27.3341 37.3925 24.4585 38.105 22.1134C38.8201 19.7615 40.0256 18.2714 42 18.0803V15.9208C40.0257 15.7291 38.8201 14.2396 38.105 11.8876C37.3924 9.54292 37.2935 6.66699 37.3697 4.44669C37.4491 2.13598 35.6761 0.00460815 33.2797 0.00460815H8.7232H8.72353ZM28.4746 20.9288C28.4746 24.111 26.1383 26.041 22.2611 26.041H15.661C15.4722 26.041 15.2911 25.9648 15.1576 25.8291C15.0241 25.6935 14.9491 25.5096 14.9491 25.3177V8.68342C14.9491 8.49161 15.0241 8.30765 15.1576 8.17202C15.2911 8.03639 15.4722 7.96019 15.661 7.96019H22.2235C25.4564 7.96019 27.5782 9.73936 27.5782 12.4709C27.5782 14.3882 26.1508 16.1046 24.3324 16.4053V16.5053C26.8078 16.7812 28.4746 18.523 28.4746 20.9288ZM21.5414 10.2528H17.7781V15.6533H20.9477C23.398 15.6533 24.7491 14.6509 24.7491 12.8592C24.7488 11.18 23.5873 10.2528 21.5414 10.2528ZM17.7781 17.7961V23.7476H21.6799C24.231 23.7476 25.5823 22.7076 25.5823 20.7531C25.5823 18.7985 24.1931 17.7958 21.5158 17.7958H17.7781V17.7961Z" fill="#7952B3"/>
</g>
<defs>
<clipPath id="clip0_507_161">
<rect width="42" height="34" fill="white"/>
</clipPath>
</defs>
</svg>
