<svg width="64" height="20" viewBox="0 0 64 20" fill="none" xmlns="http://www.w3.org/2000/svg">
<g clip-path="url(#clip0_703_415)">
<path d="M63.5551 13.6701C63.4463 13.6701 63.3471 13.7387 63.296 13.8821C62.64 15.7063 61.7537 16.7914 61.024 16.7914C60.6049 16.7914 60.4351 16.3362 60.4351 15.6221C60.4351 13.8354 61.5329 10.0468 62.0863 8.31929C62.1503 8.11037 62.192 7.92329 62.192 7.76428C62.192 7.26225 61.9103 7.01591 61.2129 7.01591C60.4609 7.01591 59.6511 7.30277 58.864 8.64671C58.592 7.46182 57.7697 6.94418 56.6209 6.94418C55.2929 6.94418 54.0097 7.77674 52.9537 9.12692C51.8977 10.4771 50.656 10.9199 49.7217 10.7016C50.3937 9.09886 50.6431 7.90148 50.6431 7.01277C50.6431 5.61895 49.936 4.77705 48.7937 4.77705C47.056 4.77705 46.0543 6.39228 46.0543 8.09166C46.0543 9.40443 46.6657 10.7546 48.0097 11.4094C46.8831 13.8915 45.2383 16.1366 44.6143 16.1366C43.808 16.1366 43.5711 12.2919 43.616 9.54163C43.6449 7.96382 43.7791 7.88277 43.7791 7.40566C43.7791 7.13126 43.5969 6.94418 42.864 6.94418C41.1551 6.94418 40.6271 8.3536 40.5471 9.97194C40.5214 10.587 40.4226 11.197 40.2529 11.7898C39.5391 14.2719 38.0671 16.1553 37.1071 16.1553C36.6623 16.1553 36.5409 15.7218 36.5409 15.1543C36.5409 13.3676 37.568 11.135 37.568 9.22982C37.568 7.82975 36.9377 6.94418 35.7503 6.94418C34.352 6.94418 32.5023 8.56563 30.752 11.6027C31.328 9.27659 31.5649 7.02526 29.8592 7.02526C29.4892 7.03065 29.1259 7.12262 28.8 7.29342C28.6906 7.34326 28.5991 7.42406 28.5375 7.52529C28.4758 7.62649 28.4469 7.74345 28.4544 7.86092C28.6176 10.3368 26.4064 16.6791 24.3104 16.6791C23.9296 16.6791 23.744 16.2769 23.744 15.6283C23.744 13.8385 24.8384 10.0592 25.3888 8.32865C25.4592 8.10415 25.4976 7.91083 25.4976 7.74243C25.4976 7.26846 25.1968 7.02526 24.5152 7.02526C23.7664 7.02526 22.9536 7.30277 22.1696 8.64671C21.8944 7.46182 21.072 6.94418 19.9232 6.94418C18.0384 6.94418 15.9328 8.8868 15.008 11.4188C13.7696 14.7989 11.2736 18.0636 7.9136 18.0636C4.864 18.0636 3.2544 15.5909 3.2544 11.6838C3.2544 6.04305 7.504 1.43436 10.656 1.43436C12.1632 1.43436 12.8832 2.36982 12.8832 3.80418C12.8832 5.54102 11.888 6.34862 11.888 7.00966C11.888 7.21234 12.0608 7.41191 12.4032 7.41191C13.7728 7.41191 15.3856 5.84348 15.3856 3.7044C15.3856 1.56533 13.6032 0 10.4512 0C5.2416 0 0 5.10757 0 11.6526C0 16.86 2.6368 20 7.1968 20C10.3072 20 13.024 17.6426 14.4896 14.8924C14.656 17.1718 15.7184 18.363 17.3376 18.363C18.7776 18.363 19.9424 17.5273 20.832 16.0586C21.1744 17.5959 22.0832 18.3474 23.264 18.3474C24.6176 18.3474 25.7504 17.5117 26.8288 15.9588C26.8128 17.1781 27.0976 18.3255 28.1824 18.3255C28.6944 18.3255 29.3056 18.2102 29.4144 17.7736C30.5568 13.1712 33.3791 9.41378 34.2431 9.41378C34.4991 9.41378 34.5697 9.65388 34.5697 9.93763C34.5697 11.188 33.664 13.7512 33.664 15.3882C33.664 17.1562 34.4351 18.3255 36.0289 18.3255C37.7951 18.3255 39.5903 16.2177 40.7871 13.1369C41.1617 16.015 41.9711 18.338 43.2383 18.338C44.7937 18.338 47.5551 15.1481 49.2289 11.7711C49.8849 11.8522 50.8703 11.8304 51.8177 11.1787C51.4143 12.1734 51.1777 13.2616 51.1777 14.3498C51.1777 17.4836 52.7137 18.363 54.0351 18.363C55.472 18.363 56.6369 17.5273 57.5297 16.0586C57.824 17.3838 58.576 18.3442 59.9583 18.3442C62.1217 18.3442 64 16.1896 64 14.4216C64 13.9538 63.7951 13.6701 63.5551 13.6701ZM18.656 16.6261C17.7824 16.6261 17.44 15.7686 17.44 14.4902C17.44 12.27 18.9984 8.56252 20.6464 8.56252C21.3664 8.56252 21.6384 9.38883 21.6384 10.3991C21.6384 12.6536 20.1568 16.6261 18.656 16.6261ZM48.5791 10C48.0577 9.39508 47.8689 8.57188 47.8689 7.83911C47.8689 6.93483 48.208 6.17086 48.6143 6.17086C49.0209 6.17086 49.1457 6.56065 49.1457 7.1032C49.1457 8.01062 48.8129 9.33582 48.5791 10ZM55.3537 16.6261C54.48 16.6261 54.1377 15.6408 54.1377 14.4902C54.1377 12.348 55.696 8.56252 57.3569 8.56252C58.0769 8.56252 58.3329 9.38262 58.3329 10.3991C58.3329 12.6536 56.8769 16.6261 55.3537 16.6261Z" fill="url(#paint0_linear_703_415)"/>
</g>
<defs>
<linearGradient id="paint0_linear_703_415" x1="6.11765" y1="2.34289e-06" x2="63.8288" y2="16.7439" gradientUnits="userSpaceOnUse">
<stop stop-color="#00BBC6"/>
<stop offset="0.489354" stop-color="#355AE4"/>
<stop offset="1" stop-color="#7225E3"/>
</linearGradient>
<clipPath id="clip0_703_415">
<rect width="64" height="20" fill="white"/>
</clipPath>
</defs>
</svg>
