<svg width="42" height="42" viewBox="0 0 42 42" fill="none" xmlns="http://www.w3.org/2000/svg">
<mask id="mask0_843_3203" style="mask-type:luminance" maskUnits="userSpaceOnUse" x="0" y="0" width="42" height="42">
<path d="M41.0872 0H0V41.1115H41.0872V0Z" fill="white"/>
</mask>
<g mask="url(#mask0_843_3203)">
<path d="M19.2011 0.0324416C19.1142 0.0403477 18.8297 0.0680303 18.5769 0.088586C12.7456 0.614339 7.28575 3.76175 3.83284 8.59868C1.9049 11.2883 0.672313 14.3393 0.206131 17.5713C0.0402014 18.6995 0.0244141 19.0323 0.0244141 20.5621C0.0244141 22.0912 0.0402014 22.4248 0.206131 23.5522C1.32023 31.2646 6.80381 37.7436 14.2469 40.1439C15.5743 40.574 16.9808 40.8665 18.5769 41.0436C19.2011 41.1116 21.8875 41.1116 22.5117 41.0436C25.2693 40.7384 27.6002 40.0561 29.9074 38.8797C30.2551 38.6986 30.3262 38.6504 30.2788 38.6109C30.2472 38.5864 28.738 36.5672 26.9365 34.1266L23.6574 29.6905L19.5408 23.6004C17.281 20.253 15.4163 17.5151 15.4005 17.5151C15.3847 17.5112 15.3688 20.2166 15.3609 23.5206C15.3451 29.3054 15.3451 29.5379 15.274 29.6747C15.1713 29.8715 15.0844 29.9514 14.9185 30.0399C14.7921 30.104 14.6815 30.1158 14.0731 30.1158H13.3778L13.196 29.9996C13.0774 29.9237 12.9827 29.8233 12.9273 29.7063L12.8404 29.526L12.8484 21.4769L12.8642 13.4245L12.9827 13.268C13.0538 13.1834 13.1882 13.0751 13.283 13.0229C13.4489 12.9423 13.512 12.9343 14.2074 12.9343C15.0212 12.9343 15.1634 12.9668 15.3768 13.1992C15.4321 13.2633 17.6603 16.6194 20.323 20.6625C22.9858 24.7049 26.6283 30.2241 28.422 32.9343L31.6694 37.8598L31.8354 37.7515C33.2893 36.8043 34.83 35.4556 36.0547 34.0499C38.6464 31.0677 40.3215 27.4301 40.8825 23.5522C41.0484 22.4248 41.0642 22.0912 41.0642 20.5621C41.0642 19.0323 41.0484 18.6995 40.8825 17.5713C39.7684 9.85969 34.2848 3.37989 26.8417 0.97961C25.5301 0.554264 24.1316 0.260934 22.5671 0.0846291C22.1878 0.0443082 19.533 2.67436e-05 19.2011 0.0324416ZM27.6003 12.4529C27.7978 12.5493 27.9479 12.7335 28.0032 12.9265C28.0427 13.0308 28.0506 15.2627 28.0427 20.2925L28.0269 27.5108L26.7548 25.5596L25.4827 23.6091V18.3619C25.4827 14.9694 25.4985 13.0632 25.5222 12.9707C25.5854 12.7454 25.7276 12.5691 25.9173 12.4647C26.0832 12.3801 26.1385 12.3722 26.7706 12.3722C27.3632 12.3722 27.466 12.3801 27.6003 12.4529Z" fill="white"/>
<path d="M31.4714 37.9482C31.3292 38.036 31.2818 38.0969 31.4082 38.0281C31.4951 37.9759 31.6374 37.8676 31.6137 37.8636C31.6058 37.8636 31.5346 37.904 31.4714 37.9482ZM31.1949 38.1285C31.1158 38.1846 31.1159 38.1886 31.2107 38.1451C31.2581 38.1206 31.2976 38.0929 31.2976 38.0842C31.2976 38.0526 31.2739 38.0605 31.1949 38.1285ZM30.9894 38.2495C30.9183 38.3056 30.9183 38.3095 31.0052 38.2653C31.0526 38.2408 31.0921 38.2131 31.0921 38.2052C31.0921 38.1728 31.0763 38.1807 30.9894 38.2495ZM30.7919 38.3696C30.7208 38.4258 30.7208 38.4297 30.8077 38.3855C30.8551 38.3617 30.8946 38.3333 30.8946 38.3254C30.8946 38.293 30.8709 38.3017 30.7919 38.3696ZM30.4837 38.5301C30.3336 38.6108 30.3415 38.6424 30.4916 38.5665C30.5627 38.5301 30.6102 38.4938 30.6102 38.4858C30.6102 38.4582 30.6101 38.4621 30.4837 38.5301Z" fill="white"/>
</g>
</svg>
