<svg width="42" height="42" viewBox="0 0 42 42" fill="none" xmlns="http://www.w3.org/2000/svg">
<g clip-path="url(#clip0_517_1829)">
<path d="M25.7512 15.1699L21.5472 19.0811L17.6465 11.2127L19.6651 6.68721C20.1901 5.76846 21.0091 5.77896 21.521 6.68721L25.7512 15.1699Z" fill="#FFA000"/>
<path d="M17.6468 11.2126L21.5475 19.0811L5.83691 33.6958L17.6468 11.2126Z" fill="#F57F17"/>
<path d="M30.3492 9.19141C31.0999 8.46954 31.8769 8.71629 32.0751 9.73873L36.1649 33.5015L22.6094 41.639C22.1369 41.9015 20.8769 42.0144 20.8769 42.0144C20.8769 42.0144 19.7297 41.8779 19.2927 41.6207L5.83691 33.6958L30.3492 9.19141Z" fill="#FFCA28"/>
<path d="M17.6465 11.2127L5.83789 33.6958L11.0971 0.837395C11.2913 -0.186355 11.8741 -0.284793 12.3938 0.618207L17.6465 11.2127Z" fill="#FFA000"/>
</g>
<defs>
<clipPath id="clip0_517_1829">
<rect width="42" height="42" fill="white"/>
</clipPath>
</defs>
</svg>
