<svg width="34" height="33" viewBox="0 0 34 33" fill="none" xmlns="http://www.w3.org/2000/svg">
<path d="M25.2287 0.0178223H8.63576C4.27195 0.0178223 0.734375 3.55749 0.734375 7.92388V24.5266C0.734375 28.893 4.27195 32.4327 8.63576 32.4327H25.2287C29.5925 32.4327 33.1301 28.893 33.1301 24.5266V7.92388C33.1301 3.55749 29.5925 0.0178223 25.2287 0.0178223Z" fill="#DBBA00"/>
<mask id="mask0_843_3202" style="mask-type:luminance" maskUnits="userSpaceOnUse" x="3" y="3" width="28" height="27">
<path d="M30.005 3.14746H3.6416V29.5264H30.005V3.14746Z" fill="white"/>
</mask>
<g mask="url(#mask0_843_3202)">
<path d="M3.6416 3.14746H30.0006V29.5264H3.6416V3.14746Z" fill="#DFC000"/>
<path d="M27.8438 23.235C27.6542 22.0314 26.864 21.0209 24.541 20.0781C23.735 19.7069 22.8343 19.4412 22.5656 18.8294C22.4708 18.4733 22.4629 18.2727 22.5182 18.057C22.692 17.3574 23.5296 17.1393 24.1933 17.3399C24.62 17.4828 25.023 17.8113 25.26 18.3353C26.3978 17.5982 26.3978 17.6031 27.1958 17.0967C26.9035 16.6453 26.7455 16.4372 26.5559 16.2441C25.8685 15.4793 24.9361 15.0857 23.4506 15.1157C23.1898 15.1483 22.9291 15.1834 22.6684 15.2161C21.9256 15.4041 21.2145 15.7953 20.8036 16.3194C19.5552 17.7361 19.9107 20.216 21.4278 21.2366C22.9212 22.3599 25.1257 22.6157 25.4022 23.6664C25.6788 24.9527 24.462 25.3689 23.2451 25.221C22.3523 25.0355 21.8625 24.5816 21.3252 23.7566C20.3375 24.3284 20.3375 24.3284 19.3182 24.9126C19.5631 25.4392 19.816 25.6774 20.219 26.1337C22.1311 28.072 26.9035 27.9768 27.7647 25.043C27.7963 24.9427 28.0334 24.2706 27.8438 23.235ZM17.9671 15.2712H15.5017C15.5017 17.4026 15.4939 19.5189 15.4939 21.6503C15.4939 23.0069 15.565 24.2506 15.3438 24.6317C14.9803 25.3814 14.048 25.2887 13.6213 25.1432C13.1867 24.9301 12.9655 24.6267 12.7126 24.1979C12.6415 24.075 12.5862 23.9798 12.5704 23.9723C11.9066 24.3809 11.235 24.7922 10.5713 25.2009C10.9031 25.8855 11.3931 26.4798 12.0173 26.8659C12.9576 27.4301 14.2218 27.603 15.5413 27.2997C16.4025 27.0489 17.1453 26.5299 17.5325 25.7401C18.0935 24.7044 17.975 23.4507 17.9671 22.0641C17.9829 19.8023 17.9671 17.5404 17.9671 15.2712Z" fill="#323330"/>
</g>
</svg>
