<svg width="31" height="59" viewBox="0 0 31 59" fill="none" xmlns="http://www.w3.org/2000/svg">
<path d="M10.3582 30.8941C10.3582 30.8941 8.82317 31.8281 11.4258 32.0952C14.5624 32.4955 16.2307 32.4288 19.7007 31.7616C19.7007 31.7616 20.6349 32.362 21.9029 32.8291C14.0952 36.1653 4.2183 32.6288 10.3583 30.8941H10.3582ZM9.35724 26.557C9.35724 26.557 7.68895 27.8247 10.2915 28.0919C13.6949 28.4255 16.3643 28.492 20.9687 27.558C20.9687 27.558 21.5693 28.2252 22.5702 28.5588C13.161 31.3613 2.61658 28.8256 9.35692 26.5572L9.35724 26.557ZM27.7759 34.1628C27.7759 34.1628 28.9103 35.0969 26.5079 35.8309C22.0367 37.1655 7.7563 37.5658 3.75175 35.8309C2.35034 35.2306 5.01972 34.363 5.88707 34.2295C6.75457 34.0294 7.22176 34.0294 7.22176 34.0294C5.68707 32.9619 -2.98843 36.2313 2.81737 37.1655C18.7663 39.7677 31.9128 36.0313 27.7757 34.1627L27.7759 34.1628ZM11.0927 22.0192C11.0927 22.0192 3.81894 23.7539 8.49021 24.3545C10.4922 24.6214 14.4294 24.5547 18.0998 24.2876C21.1026 24.0208 24.1057 23.4869 24.1057 23.4869C24.1057 23.4869 23.0381 23.9539 22.3038 24.4209C14.8966 26.3559 0.682847 25.4884 4.75301 23.4869C8.22302 21.8187 11.0926 22.0189 11.0926 22.0189L11.0927 22.0192ZM24.1056 29.292C31.5795 25.422 28.1095 21.6856 25.7071 22.1526C25.1065 22.2859 24.8396 22.4194 24.8396 22.4194C24.8396 22.4194 25.0398 22.0191 25.5068 21.8856C30.2448 20.2175 33.982 26.8897 23.9721 29.492C23.9721 29.492 24.0389 29.4252 24.1056 29.2919V29.292ZM11.8266 39.8344C19.0337 40.3014 30.0434 39.5675 30.3122 36.1645C30.3122 36.1645 29.7783 37.4991 24.3729 38.4999C18.2335 39.6342 10.6262 39.5006 6.15617 38.7667C6.15617 38.7667 7.09039 39.5675 11.8284 39.8342L11.8266 39.8344Z" fill="white"/>
<mask id="mask0_702_360" style="mask-type:luminance" maskUnits="userSpaceOnUse" x="0" y="0" width="30" height="59">
<path d="M0 0H29.6053V58.2504H0V0Z" fill="white"/>
</mask>
<g mask="url(#mask0_702_360)">
<path d="M19.5671 0C19.5671 0 23.7046 4.20344 15.6299 10.5422C9.15686 15.68 14.1617 18.616 15.6299 21.9521C11.8261 18.5491 9.08999 15.5466 10.9586 12.7442C13.695 8.60735 21.2363 6.6069 19.5675 0H19.5671ZM17.433 19.15C19.3682 21.3519 16.8991 23.3538 16.8991 23.3538C16.8991 23.3538 21.8372 20.8183 19.5683 17.6822C17.4996 14.6797 15.898 13.2119 24.5732 8.20879C24.5732 8.20879 10.8931 11.6118 17.4327 19.1515L17.433 19.15ZM12.4938 54.9797V48.4408C12.4938 46.7725 11.5595 45.6383 9.2239 45.6383C7.88921 45.6383 6.75483 45.9719 5.75373 46.371L6.08748 47.5721C6.82028 47.3052 7.75577 47.0383 8.75687 47.0383C10.0248 47.0383 10.6253 47.5721 10.6253 48.6397V49.5071H9.95812C6.75483 49.5071 5.2867 50.7082 5.2867 52.643C5.2867 54.2444 6.28764 55.1786 8.08952 55.1786C9.22406 55.1786 10.0916 54.6447 10.8925 53.9775L11.0259 54.9783H12.4941L12.4938 54.9797ZM10.6252 52.8446C9.95796 53.4452 9.2239 53.7788 8.55639 53.7788C7.68889 53.7788 7.15514 53.2449 7.15514 52.3108C7.15514 51.3766 7.68905 50.7094 9.82437 50.7094H10.6253V52.8432L10.6252 52.8446ZM18.7667 54.9797H16.4311L13.6286 45.8385H15.6306L17.3657 51.4433L17.766 53.1113C18.6335 50.7093 19.301 48.2405 19.5678 45.8385H21.5697C21.0358 48.8411 20.1016 52.1105 18.7672 54.9797H18.7667ZM29.5772 54.9797V48.4408C29.5772 46.7725 28.643 45.6383 26.3074 45.6383C24.9727 45.6383 23.8383 45.9719 22.8372 46.371L23.1043 47.5721C23.9052 47.3052 24.8393 47.0383 25.8404 47.0383C27.1083 47.0383 27.7088 47.5721 27.7088 48.6397V49.5071H27.0416C23.8385 49.5071 22.3704 50.7082 22.3704 52.643C22.3704 54.2444 23.3046 55.1786 25.1063 55.1786C26.3076 55.1786 27.1751 54.6447 27.9757 53.9775L28.1091 54.9783H29.5772V54.9797ZM27.7088 52.8446C27.0416 53.4452 26.3076 53.7788 25.64 53.7788C24.7725 53.7788 24.2388 53.2449 24.2388 52.3108C24.2388 51.3766 24.7727 50.7094 26.908 50.7094H27.709V52.8432L27.7088 52.8446ZM3.21842 56.5144C2.68451 57.3154 1.88373 57.9155 0.882627 58.2493L0.0146484 57.1824C0.681836 56.7821 1.34934 56.1816 1.61622 55.6476C1.88309 55.1805 1.94997 54.5132 1.94997 52.9787V42.5697H3.95201V52.8454C3.95201 54.9137 3.75185 55.7144 3.21921 56.5152L3.21842 56.5144Z" fill="#F58219"/>
</g>
</svg>
