<svg width="53" height="45" viewBox="0 0 53 45" fill="none" xmlns="http://www.w3.org/2000/svg">
<mask id="mask0_702_390" style="mask-type:luminance" maskUnits="userSpaceOnUse" x="24" y="14" width="27" height="31">
<path d="M24.3389 14.7948H50.6579V44.1983H24.3389V14.7948Z" fill="white"/>
</mask>
<g mask="url(#mask0_702_390)">
<path d="M50.6539 14.7947H24.3428L26.6643 41.1032L37.4983 44.1982L48.3323 41.1032L50.6539 14.7947Z" fill="#0277BD"/>
</g>
<path d="M37.499 17.1166V41.8L46.1662 39.3239L48.1009 17.1166H37.499Z" fill="#039BE5"/>
<path d="M44.5411 20.9854H37.499V24.0804H41.291L41.0588 27.1755H37.499V30.2707H40.904L40.6718 33.7527L37.499 34.8359V38.0858L43.6125 36.074L44.1542 27.1755L44.5411 20.9854Z" fill="white"/>
<path d="M37.4984 20.9854V24.0804H30.6111L30.3789 20.9854H37.4984ZM33.9387 27.1755L34.0934 30.2707H37.4984V27.1755H33.9387ZM34.2482 31.8182H31.1528L31.385 36.074L37.4984 38.0858V34.8359L34.3256 33.7527L34.2482 31.8182Z" fill="#EEEEEE"/>
<mask id="mask1_702_390" style="mask-type:luminance" maskUnits="userSpaceOnUse" x="2" y="0" width="31" height="36">
<path d="M2.76953 0.791626H32.2395V35.2076H2.76953V0.791626Z" fill="white"/>
</mask>
<g mask="url(#mask1_702_390)">
<path d="M5.44435 31.7562L2.76074 0.807526H32.2474L29.5617 31.7519L17.4853 35.1926L5.44435 31.7562Z" fill="#E44D26"/>
</g>
<path d="M27.2613 29.7813L29.5573 3.33841H17.5039V32.5634L27.2613 29.7813Z" fill="#F16529"/>
<path d="M17.4914 7.13379H8.24707L9.24302 18.6123H17.504V14.8169H12.6195L12.2819 10.9302H17.504V7.13379H17.4914ZM17.504 24.662L17.4883 24.6664L13.3771 23.5252L13.1159 20.4981H9.40809L9.92543 26.4577L17.4873 28.6069L17.504 28.6014V24.662Z" fill="#EBEBEB"/>
<path d="M17.4914 18.6123H22.0373L21.6193 23.5338L17.5018 24.676V28.625L25.0699 26.4684L26.0837 14.8147H17.5039L17.4914 18.6123ZM26.6501 8.15248L26.7378 7.13379H17.4893V10.9291H26.4055L26.4787 10.0759L26.6501 8.15248Z" fill="white"/>
</svg>
