<svg width="205" height="205" viewBox="0 0 205 205" fill="none" xmlns="http://www.w3.org/2000/svg">
<g clip-path="url(#clip0_843_3210)">
<path d="M102.5 205C159.109 205 205 159.109 205 102.5C205 45.8908 159.109 0 102.5 0C45.8908 0 0 45.8908 0 102.5C0 159.109 45.8908 205 102.5 205Z" fill="#13AA52"/>
<path d="M129.898 89.9758C123.424 61.4019 108.123 52.0067 106.476 48.4172C104.674 45.8848 102.848 41.3804 102.848 41.3804C102.818 41.3043 102.77 41.1702 102.714 41.04C102.528 43.5725 102.432 44.5495 100.037 47.104C96.3297 50.0028 77.3071 65.9644 75.7596 98.428C74.3162 128.706 97.6309 146.747 100.784 149.047L101.142 149.302V149.28C101.162 149.432 102.143 156.487 102.832 163.962H105.302C105.882 158.678 106.751 153.43 107.905 148.241L108.105 148.11C109.516 147.099 110.86 145.999 112.131 144.817L112.275 144.687C118.978 138.495 131.028 124.173 130.909 101.339C130.884 97.5299 130.546 93.7294 129.898 89.9758ZM102.57 131.953C102.57 131.953 102.57 89.4873 103.971 89.4953C105.064 89.4953 106.48 144.271 106.48 144.271C104.534 144.037 102.57 135.256 102.57 131.953Z" fill="white"/>
</g>
<defs>
<clipPath id="clip0_843_3210">
<rect width="205" height="205" fill="white"/>
</clipPath>
</defs>
</svg>
