<svg width="39" height="35" viewBox="0 0 39 35" fill="none" xmlns="http://www.w3.org/2000/svg">
<path d="M38.5507 17.8886C38.5507 15.3603 35.406 12.9647 30.5782 11.4792C31.6923 6.53234 31.2024 2.59591 29.0216 1.33568C28.5159 1.04079 27.9312 0.900062 27.2833 0.900062V2.63465C27.6389 2.63465 27.9312 2.70501 28.1683 2.83704C29.2191 3.44423 29.6774 5.75438 29.3218 8.72548C29.2349 9.45679 29.0927 10.2268 28.9268 11.0127C27.4097 10.6387 25.7583 10.351 24.02 10.1644C22.977 8.72548 21.8946 7.41861 20.8042 6.27539C23.3247 3.91859 25.6872 2.62753 27.2912 2.62753V0.892944C25.1657 0.892944 22.3844 2.41724 19.5715 5.06182C16.7586 2.43305 13.9773 0.923779 11.8519 0.923779V2.65837C13.4479 2.65837 15.8263 3.94153 18.339 6.2833C17.2644 7.42652 16.1819 8.72548 15.1468 10.1644C13.4006 10.351 11.7492 10.6388 10.2321 11.0198C10.0583 10.2427 9.92398 9.48763 9.82916 8.76423C9.4657 5.79313 9.91602 3.48298 10.959 2.86868C11.1881 2.72795 11.4963 2.66628 11.8519 2.66628V0.931693C11.1961 0.931693 10.6114 1.07163 10.1057 1.36731C7.93281 2.62754 7.44296 6.55527 8.56496 11.4871C3.75301 12.9805 0.624023 15.3682 0.624023 17.8886C0.624023 20.4162 3.76875 22.8125 8.5965 24.2981C7.4824 29.2449 7.97236 33.1805 10.1531 34.4407C10.6588 34.7364 11.2435 34.8764 11.8914 34.8764C14.0248 34.8764 16.8061 33.3521 19.619 30.7075C22.4319 33.3363 25.2132 34.8455 27.3387 34.8455C27.9945 34.8455 28.5792 34.7056 29.0848 34.4099C31.2577 33.1497 31.7476 29.222 30.6256 24.2901C35.4217 22.8046 38.5507 20.4091 38.5507 17.8886ZM28.4843 12.7006C28.1999 13.7039 27.8443 14.738 27.4413 15.7729C27.1252 15.1507 26.7935 14.5285 26.43 13.9055C26.0744 13.2833 25.6951 12.6769 25.3159 12.0856C26.4142 12.2492 27.473 12.4516 28.4843 12.7006ZM24.9445 20.9846C24.344 22.0346 23.7198 23.0299 23.0798 23.9557C21.9262 24.0569 20.7647 24.1115 19.5874 24.1115C18.418 24.1115 17.2564 24.0569 16.1107 23.9636C15.4707 23.0378 14.8386 22.0496 14.2381 21.0075C13.6534 19.9885 13.1161 18.9543 12.6262 17.9115C13.1082 16.8695 13.6534 15.8275 14.2302 14.8084C14.8307 13.7585 15.4549 12.7623 16.0949 11.8365C17.2485 11.7361 18.4101 11.6816 19.5874 11.6816C20.7568 11.6816 21.9183 11.7361 23.064 11.8294C23.704 12.7544 24.3361 13.7427 24.9366 14.7847C25.5213 15.8038 26.0586 16.8387 26.5485 17.8807C26.0586 18.9227 25.5213 19.9655 24.9445 20.9846ZM27.4413 19.9734C27.8601 21.0155 28.2157 22.0575 28.5081 23.0687C27.4967 23.3177 26.43 23.528 25.3238 23.6909C25.703 23.0924 26.0823 22.4781 26.4379 21.848C26.7935 21.2258 27.1252 20.5956 27.4413 19.9734ZM19.6032 28.2724C18.8841 27.5261 18.1651 26.6936 17.454 25.7836C18.1493 25.8144 18.8604 25.8382 19.5794 25.8382C20.3064 25.8382 21.0254 25.8223 21.7286 25.7836C21.0333 26.6936 20.3143 27.5261 19.6032 28.2724ZM13.8509 23.6909C12.7526 23.528 11.6939 23.3256 10.6825 23.0766C10.9669 22.0733 11.3225 21.0384 11.7255 20.0043C12.0416 20.6265 12.3734 21.2487 12.7368 21.8709C13.1003 22.4931 13.4717 23.1003 13.8509 23.6909ZM19.5636 7.50399C20.2827 8.25112 21.0017 9.08362 21.7128 9.99361C21.0175 9.96199 20.3064 9.93906 19.5874 9.93906C18.8604 9.93906 18.1414 9.95408 17.4382 9.99361C18.1335 9.08362 18.8525 8.25112 19.5636 7.50399ZM13.843 12.0856C13.4638 12.6848 13.0845 13.2991 12.7289 13.9292C12.3733 14.5515 12.0416 15.1737 11.7255 15.7959C11.3067 14.7539 10.9511 13.7118 10.6587 12.7006C11.6701 12.4595 12.7368 12.2492 13.843 12.0856ZM6.85032 21.8242C4.10854 20.6502 2.33866 19.1093 2.33866 17.8886C2.33866 16.6671 4.10854 15.1191 6.85032 13.953C7.51404 13.6644 8.24094 13.4082 8.99157 13.1671C9.42614 14.6914 10.0109 16.2781 10.7299 17.9044C10.0188 19.522 9.44197 21.1008 9.0153 22.618C8.24886 22.3769 7.52194 22.112 6.85032 21.8242ZM11.0065 32.9394C9.95558 32.333 9.49733 30.0228 9.85289 27.0517C9.9398 26.3204 10.082 25.5504 10.248 24.7645C11.765 25.1377 13.4164 25.4255 15.1547 25.6128C16.1977 27.0517 17.2801 28.3586 18.3705 29.5018C15.85 31.8586 13.4875 33.1497 11.8835 33.1497C11.5358 33.1418 11.2356 33.0722 11.0065 32.9394ZM29.3456 27.0122C29.709 29.9841 29.2587 32.2942 28.2157 32.9085C27.9866 33.0485 27.6784 33.1109 27.3228 33.1109C25.7268 33.1109 23.3484 31.8278 20.8357 29.486C21.9103 28.3428 22.9929 27.0438 24.0279 25.6049C25.7741 25.4183 27.4255 25.1306 28.9426 24.7487C29.1164 25.5346 29.2586 26.2888 29.3456 27.0122ZM32.3165 21.8242C31.6528 22.112 30.9259 22.369 30.1752 22.6101C29.7407 21.085 29.1559 19.4983 28.4369 17.8728C29.148 16.2552 29.7248 14.6764 30.1515 13.1592C30.9179 13.4003 31.6449 13.6644 32.3244 13.953C35.0662 15.127 36.8361 16.6671 36.8361 17.8886C36.8282 19.1093 35.0583 20.6573 32.3165 21.8242Z" fill="#00A9D8"/>
</svg>
