<svg width="53" height="33" viewBox="0 0 53 33" fill="none" xmlns="http://www.w3.org/2000/svg">
<g clip-path="url(#clip0_702_363)">
<path d="M26.5 0.0438843C19.4334 0.0438843 15.0166 3.70087 13.25 11.0146C15.9 7.35764 18.9916 5.9863 22.525 6.9006C24.5409 7.42214 25.9818 8.93598 27.5768 10.6114C30.175 13.341 33.1819 16.5 39.75 16.5C46.8166 16.5 51.2334 12.843 53 5.52926C50.35 9.18624 47.2584 10.5576 43.725 9.64329C41.7091 9.12175 40.2682 7.60791 38.6732 5.93252C36.075 3.2029 33.0681 0.0438843 26.5 0.0438843ZM13.25 16.5C6.1834 16.5 1.7666 20.157 0 27.4708C2.65 23.8138 5.7416 22.4424 9.275 23.3567C11.2909 23.8783 12.7318 25.3921 14.3268 27.0675C16.925 29.7971 19.9319 32.9561 26.5 32.9561C33.5666 32.9561 37.9834 29.2991 39.75 21.9854C37.1 25.6424 34.0084 27.0137 30.475 26.0994C28.4591 25.5779 27.0182 24.064 25.4232 22.3886C22.825 19.659 19.8181 16.5 13.25 16.5Z" fill="url(#paint0_linear_702_363)"/>
</g>
<defs>
<linearGradient id="paint0_linear_702_363" x1="-1.47234" y1="10.5758" x2="45.0735" y2="36.5064" gradientUnits="userSpaceOnUse">
<stop stop-color="#2298BD"/>
<stop offset="1" stop-color="#0ED7B5"/>
</linearGradient>
<clipPath id="clip0_702_363">
<rect width="53" height="33" fill="white"/>
</clipPath>
</defs>
</svg>
