<svg xmlns="http://www.w3.org/2000/svg" width="35" height="16" fill="none" viewBox="0 0 35 16">
    <path fill="#FFF800" d="M1 0h33c.552 0 1 .448 1 1v14c0 .552-.448 1-1 1H1c-.552 0-1-.448-1-1V1c0-.552.448-1 1-1z"/>
    <path fill="#222" d="M8.251 12V8.51c-.007-.415-.037-1.052-.093-1.91h.044l3.106 5.4h1.923V4.861H11.87v3.503c.005.394.03 1.009.073 1.844h-.034l-3.1-5.347h-1.91V12h1.353zm10.889 0v-1.25h-2.598V8.91h2.417V7.668h-2.417V6.102h2.598v-1.24h-4.112V12h4.112zm4.13 0l.962-3.74c.043-.166.103-.444.181-.833.078-.389.127-.671.147-.847.013.143.062.424.149.842.086.419.147.695.183.828l.966 3.75h1.724l1.816-7.139H27.91l-.908 3.897c-.059.234-.124.541-.195.92-.072.38-.124.696-.157.95-.035-.264-.088-.58-.156-.947-.068-.368-.125-.642-.17-.82l-1.04-4h-1.431l-1.04 4c-.062.214-.128.516-.198.905-.07.39-.115.676-.134.862-.072-.527-.188-1.15-.347-1.87L21.22 4.86h-1.49L21.552 12h1.718z"/>
</svg>
