<?xml version="1.0" encoding="UTF-8"?>
<svg width="18px" height="19px" viewBox="0 0 18 19" version="1.1" xmlns="http://www.w3.org/2000/svg" xmlns:xlink="http://www.w3.org/1999/xlink">
    <title>b</title>
    <g id="Web" stroke="none" stroke-width="1" fill="none" fill-rule="evenodd">
        <g id="Footer-Ver-1-1" transform="translate(-225.000000, -5257.000000)" fill="#FFFFFF" fill-rule="nonzero">
            <g id="Group-3" transform="translate(100.000000, 5243.000000)">
                <g id="Group-2-Copy-2" transform="translate(112.000000, 1.000000)">
                    <path d="M30.4304203,24.5000107 C30.750362,24.5000107 31.0175352,24.2328376 31.003459,23.9128959 C30.7011297,18.1683989 26.0815957,13.548865 20.3370987,13.2500376 C20.017157,13.2359614 19.7499839,13.5031688 19.7499839,13.8230762 L19.7499839,14.3855749 C19.7499839,14.6879385 19.989039,14.9234573 20.2914026,14.9410354 C25.1499573,15.2117448 29.073406,19.1000373 29.3124611,23.9550902 C29.3265373,24.2574194 29.5655924,24.5000107 29.8679217,24.5000107 L30.4304203,24.5000107 Z M27.0554284,24.4965088 C27.3753701,24.4965088 27.6460451,24.2257995 27.6249651,23.9058578 C27.3331758,20.0246376 24.225357,16.9133169 20.3406006,16.6250295 C20.0206933,16.6004133 19.7499839,16.8711227 19.7499839,17.1945663 L19.7499839,17.7570649 C19.7499839,18.0593942 19.989039,18.2949474 20.2914026,18.3125255 C23.2902167,18.5199606 25.6772998,20.9597779 25.9304311,23.9621283 C25.9550472,24.2609557 26.1870642,24.4965088 26.4858916,24.4965088 L27.0554284,24.4965088 Z M18.2382688,31.2464928 C20.8890574,31.1550661 23.0300473,29.0140762 23.121474,26.3632875 C23.2234063,23.4629038 20.7202804,21.1250188 17.8163948,21.1250188 L17.4999893,21.1250188 C17.1906219,21.1250188 16.9374906,21.37815 16.9374906,21.6875174 L16.9374906,22.8125148 C16.9374906,23.1218821 17.1906219,23.3750134 17.4999893,23.3750134 L17.8832052,23.3750134 C19.535545,23.3750134 20.9769478,24.7250239 20.8679431,26.3738275 C20.7765508,27.7765723 19.6515535,28.8980334 18.252345,28.9929619 C16.6000051,29.1054685 15.2499946,27.6640657 15.2499946,26.008224 L15.2499946,17.1875282 C15.2499946,16.8781608 14.9968634,16.6250295 14.687496,16.6250295 L13.5624987,16.6250295 C13.2531313,16.6250295 13,16.8781608 13,17.1875282 L13,25.9414135 C13,28.8452991 15.3378851,31.3449232 18.2382688,31.2464928 Z" id="b"></path>
                </g>
            </g>
        </g>
    </g>
</svg>