<?xml version="1.0" encoding="UTF-8"?>
<svg width="121px" height="54px" viewBox="0 0 121 54" version="1.1" xmlns="http://www.w3.org/2000/svg" xmlns:xlink="http://www.w3.org/1999/xlink">
    <title>dots</title>
    <g id="Visuals" stroke="none" stroke-width="1" fill="none" fill-rule="evenodd">
        <g id="Home-Page-Banner" transform="translate(-93.000000, -556.000000)" fill="#E9AE5C">
            <g id="dots" transform="translate(93.484845, 556.000000)">
                <circle id="Oval" transform="translate(117.454549, 2.060606) rotate(-270.000000) translate(-117.454549, -2.060606) " cx="117.454549" cy="2.06060612" r="2.06060612"></circle>
                <circle id="Oval" transform="translate(117.454549, 18.545455) rotate(-270.000000) translate(-117.454549, -18.545455) " cx="117.454549" cy="18.5454551" r="2.06060612"></circle>
                <circle id="Oval" transform="translate(117.454549, 35.030304) rotate(-270.000000) translate(-117.454549, -35.030304) " cx="117.454549" cy="35.030304" r="2.06060612"></circle>
                <circle id="Oval" transform="translate(117.454549, 51.515153) rotate(-270.000000) translate(-117.454549, -51.515153) " cx="117.454549" cy="51.515153" r="2.06060612"></circle>
                <circle id="Oval" transform="translate(100.969700, 2.060606) rotate(-270.000000) translate(-100.969700, -2.060606) " cx="100.9697" cy="2.06060612" r="2.06060612"></circle>
                <circle id="Oval" transform="translate(100.969700, 18.545455) rotate(-270.000000) translate(-100.969700, -18.545455) " cx="100.9697" cy="18.5454551" r="2.06060612"></circle>
                <circle id="Oval" transform="translate(100.969700, 35.030304) rotate(-270.000000) translate(-100.969700, -35.030304) " cx="100.9697" cy="35.030304" r="2.06060612"></circle>
                <circle id="Oval" transform="translate(100.969700, 51.515153) rotate(-270.000000) translate(-100.969700, -51.515153) " cx="100.9697" cy="51.515153" r="2.06060612"></circle>
                <circle id="Oval" transform="translate(84.484851, 2.060606) rotate(-270.000000) translate(-84.484851, -2.060606) " cx="84.4848509" cy="2.06060612" r="2.06060612"></circle>
                <circle id="Oval" transform="translate(84.484851, 18.545455) rotate(-270.000000) translate(-84.484851, -18.545455) " cx="84.4848509" cy="18.5454551" r="2.06060612"></circle>
                <circle id="Oval" transform="translate(84.484851, 35.030304) rotate(-270.000000) translate(-84.484851, -35.030304) " cx="84.4848509" cy="35.030304" r="2.06060612"></circle>
                <circle id="Oval" transform="translate(84.484851, 51.515153) rotate(-270.000000) translate(-84.484851, -51.515153) " cx="84.4848509" cy="51.515153" r="2.06060612"></circle>
                <circle id="Oval" transform="translate(68.000002, 2.060606) rotate(-270.000000) translate(-68.000002, -2.060606) " cx="68.0000019" cy="2.06060612" r="2.06060612"></circle>
                <circle id="Oval" transform="translate(68.000002, 18.545455) rotate(-270.000000) translate(-68.000002, -18.545455) " cx="68.0000019" cy="18.5454551" r="2.06060612"></circle>
                <circle id="Oval" transform="translate(68.000002, 35.030304) rotate(-270.000000) translate(-68.000002, -35.030304) " cx="68.0000019" cy="35.030304" r="2.06060612"></circle>
                <circle id="Oval" transform="translate(68.000002, 51.515153) rotate(-270.000000) translate(-68.000002, -51.515153) " cx="68.0000019" cy="51.515153" r="2.06060612"></circle>
                <circle id="Oval" transform="translate(51.515153, 2.060606) rotate(-270.000000) translate(-51.515153, -2.060606) " cx="51.515153" cy="2.06060612" r="2.06060612"></circle>
                <circle id="Oval" transform="translate(51.515153, 18.545455) rotate(-270.000000) translate(-51.515153, -18.545455) " cx="51.515153" cy="18.5454551" r="2.06060612"></circle>
                <circle id="Oval" transform="translate(51.515153, 35.030304) rotate(-270.000000) translate(-51.515153, -35.030304) " cx="51.515153" cy="35.030304" r="2.06060612"></circle>
                <circle id="Oval" transform="translate(51.515153, 51.515153) rotate(-270.000000) translate(-51.515153, -51.515153) " cx="51.515153" cy="51.515153" r="2.06060612"></circle>
                <circle id="Oval" transform="translate(35.030304, 2.060606) rotate(-270.000000) translate(-35.030304, -2.060606) " cx="35.030304" cy="2.06060612" r="2.06060612"></circle>
                <circle id="Oval" transform="translate(35.030304, 18.545455) rotate(-270.000000) translate(-35.030304, -18.545455) " cx="35.030304" cy="18.5454551" r="2.06060612"></circle>
                <circle id="Oval" transform="translate(35.030304, 35.030304) rotate(-270.000000) translate(-35.030304, -35.030304) " cx="35.030304" cy="35.030304" r="2.06060612"></circle>
                <circle id="Oval" transform="translate(35.030304, 51.515153) rotate(-270.000000) translate(-35.030304, -51.515153) " cx="35.030304" cy="51.515153" r="2.06060612"></circle>
                <circle id="Oval" transform="translate(18.545455, 2.060606) rotate(-270.000000) translate(-18.545455, -2.060606) " cx="18.5454551" cy="2.06060612" r="2.06060612"></circle>
                <circle id="Oval" transform="translate(18.545455, 18.545455) rotate(-270.000000) translate(-18.545455, -18.545455) " cx="18.5454551" cy="18.5454551" r="2.06060612"></circle>
                <circle id="Oval" transform="translate(18.545455, 35.030304) rotate(-270.000000) translate(-18.545455, -35.030304) " cx="18.5454551" cy="35.030304" r="2.06060612"></circle>
                <circle id="Oval" transform="translate(18.545455, 51.515153) rotate(-270.000000) translate(-18.545455, -51.515153) " cx="18.5454551" cy="51.515153" r="2.06060612"></circle>
                <circle id="Oval" transform="translate(2.060606, 2.060606) rotate(-270.000000) translate(-2.060606, -2.060606) " cx="2.06060612" cy="2.06060612" r="2.06060612"></circle>
                <circle id="Oval" transform="translate(2.060606, 18.545455) rotate(-270.000000) translate(-2.060606, -18.545455) " cx="2.06060612" cy="18.5454551" r="2.06060612"></circle>
                <circle id="Oval" transform="translate(2.060606, 35.030304) rotate(-270.000000) translate(-2.060606, -35.030304) " cx="2.06060612" cy="35.030304" r="2.06060612"></circle>
                <circle id="Oval" transform="translate(2.060606, 51.515153) rotate(-270.000000) translate(-2.060606, -51.515153) " cx="2.06060612" cy="51.515153" r="2.06060612"></circle>
            </g>
        </g>
    </g>
</svg>