<?xml version="1.0" encoding="utf-8"?>
<!-- Generator: Adobe Illustrator 24.3.0, SVG Export Plug-In . SVG Version: 6.00 Build 0)  -->
<svg version="1.1" id="Layer_1" xmlns="http://www.w3.org/2000/svg" xmlns:xlink="http://www.w3.org/1999/xlink" x="0px" y="0px"
	 viewBox="0 0 739.2 167.9" style="enable-background:new 0 0 739.2 167.9;" xml:space="preserve">
<style type="text/css">
	.st0{fill:#CDE8F9;}
	.st1{fill:#4C8DCB;}
	.st2{fill:#0E548C;}
	.st3{fill:#FDBE56;}
	.st4{fill:#0A4971;}
	.st5{fill:#D3D3D3;}
	.st6{opacity:0.15;fill:#D3D3D3;enable-background:new    ;}
	.st7{opacity:0.5;fill:#D3D3D3;enable-background:new    ;}
	.st8{fill:#EAA440;}
	.st9{fill:#FAB998;}
	.st10{fill:#F7F8F8;}
	.st11{fill:#BA7A5A;}
	.st12{fill:#A0664C;}
	.st13{fill:#274469;}
	.st14{opacity:0.3;fill:#0B1438;enable-background:new    ;}
	.st15{font-family:'Chiller-Regular';}
	.st16{font-size:90.0416px;}
	.st17{letter-spacing:6;}
	.st18{fill:#330000;}
	.st19{font-family:'ComicSansMS';}
	.st20{font-size:28.812px;}
</style>
<path class="st0" d="M185.1,157.9c28-28.6,29.4-72.3-21.1-121.4c-7.3-7.1-10.9-17.1-18.2-22.4c-22-16.2-52.9-12.9-72.4,11.2
	c-10.7,13.2-15,31.3-26,44.2C35,83.9,20.2,98,14.5,117.8c-3.7,13.1-3.1,27.4,1.2,40.2C77,169.4,135,172.9,185.1,157.9z"/>
<path class="st1" d="M162.8,130.4c0,0-3.6,23.3,10,28.8c13.7,5.5,10.2-5.9,10.2-5.9s5.3-1.9-10.1-9.8
	C165.7,139.8,162.8,130.4,162.8,130.4z"/>
<path class="st2" d="M180.6,160.6c0,0,19.3,0.1,23.5-27c4.2-27.2,14-32.3,14-32.3S176.1,106.4,180.6,160.6z"/>
<path class="st3" d="M180,159.9c4.5,7,15.7-14.4,12.1-28.1c-3.6-13.8-10.6-22.1-10.7-31.9C181.4,99.8,157.9,125.5,180,159.9z"/>
<path class="st1" d="M0.2,136.2c0,0,4.9,23,19.5,22.8c14.6-0.3,7.4-9.4,7.4-9.4s4.2-3.8-12.9-5.1C6.2,143.8,0.2,136.2,0.2,136.2
	L0.2,136.2z"/>
<path class="st3" d="M26.1,157.7c0,0,14.8-4.9,10.2-22c-4.5-17.2,1.4-22.7,1.4-22.7S7.2,126.7,26.1,157.7z"/>
<path class="st2" d="M24.6,157.2c6.6,4.7,9.5-19.4,1.3-30.9c-8.2-11.4-17.7-16.4-21.2-25.4C4.7,100.9-8.1,133.9,24.6,157.2z"/>
<path class="st4" d="M99.6,157.9l3.5,4.7c0,0-4.7,5.4-3.1,4.9s10.1-7.7,10.1-7.7s-4.1-5.8-4.1-5.9
	C106.1,153.9,99.6,157.9,99.6,157.9L99.6,157.9z"/>
<path class="st4" d="M94.5,122.8l14.7,32.5l-9.3,5.5l-15.3-29.1l1-9.6L94.5,122.8z"/>
<path class="st5" d="M132.5,132.3l11,39.3h1.3l-8.5-39.5L132.5,132.3z M112.7,132.9l-8.4,38.9h1.5l11.2-39L112.7,132.9z
	 M122.5,131.8l1.3,39.5h1.8l0.8-39.4L122.5,131.8z"/>
<path class="st5" d="M112.3,148.6l25.1-1.4l0.2,2.7l-27.1,1.7L112.3,148.6z"/>
<path class="st6" d="M112.7,132.9l-0.4,2l4.2-0.1l0.5-2L112.7,132.9z M122.5,132.7l0.1,1.9l3.7-0.1l0.1-2.3L122.5,132.7z"/>
<path class="st7" d="M123,147.8l0.1,2.8h-1.6l-0.6-2.7l2.5-0.1 M126.2,147.8v2.8l1.2-0.1l0.3-2.8L126.2,147.8z"/>
<path class="st3" d="M104.1,130.1c3.6-1.8,18-0.8,18-0.8s-4.1-53,1.2-53.4s17.2-4.4,19.3,3.6c2.3,8.4-0.8,53.4-3.8,53
	c-6.9-1-28.1,1.6-34.4,0C102.6,132,104.1,130.1,104.1,130.1L104.1,130.1z"/>
<path class="st8" d="M138,80.4c0,0,0.1,0.1,0.3,0.4c0.1,0.1,0.2,0.3,0.3,0.5s0.2,0.5,0.4,0.8c0.5,1.2,1,3,1.2,5.3s0.2,5.1,0.2,8.1
	c-0.1,3.1-0.2,6.4-0.5,9.9s-0.6,6.9-0.9,9.9c-0.3,3-0.6,5.8-1,8.1c-0.4,2.3-0.9,4.1-1.3,5.3c-0.4,1.2-0.7,1.8-0.8,1.8
	s0.2-0.7,0.5-1.9s0.7-3,1.1-5.3c0.3-2.3,0.6-5,0.8-8c0.3-3,0.6-6.4,0.8-9.9s0.5-6.8,0.6-9.9c0.1-3,0.1-5.8-0.1-8.1
	c-0.2-2.3-0.6-4.1-1-5.3C138.2,81,137.9,80.4,138,80.4L138,80.4z"/>
<path class="st9" d="M84.6,99.4l-1.3-0.7c0,0-0.9-0.3-2.2-1.2c-0.4-0.2-0.7-0.5-0.9-0.8c-0.3-0.4-0.7-1-0.9-1.3
	c-0.2-0.5-0.8-0.5-0.9-0.1s0.4,1.7,1.5,2.8c1.1,1.1-1.2,0.8-2.1,0.7c-0.9-0.1-3.5-0.3-3.7-0.1c-0.3,0.3,0,0.8,0.9,0.9s3.4,0.5,3.4,1
	s-4.4-0.1-4.4-0.1s-0.9-0.3-1,0.3c-0.1,1,4.5,1.3,4.9,1.3c0.3,0,0.3,0.5-0.1,0.5c-0.3,0-4.3-0.7-4.4,0.3c-0.1,0.8,3.8,0.3,4.6,0.9
	s-3,0-3.1,0.8c0,0.3,0,0.5,2.2,0.5s8.2-1,8.2-1L84.6,99.4"/>
<path class="st10" d="M114.1,80.5c0,0-11.3,15.9-13.8,16.6c-2.6,0.7-17.4,1.6-17.4,1.6l-1.3,6.7c0,0,18.9,1,23.1-2.2
	c6.6-5.1,13.4-16.7,13.4-16.7C118.3,82.7,116.9,80.8,114.1,80.5L114.1,80.5z"/>
<path class="st2" d="M83.5,163.8l0.7,5.9c0,0-6.7,2.2-5.1,2.6c1.6,0.4,12.5-1.2,12.5-1.2l-0.7-7.2C91.1,163.8,83.5,163.8,83.5,163.8
	L83.5,163.8z M129.2,110.2c0,0,6.3,14.1-6.1,18.9l-6.6-15.1L129.2,110.2z"/>
<path class="st2" d="M120.6,114c0,0-35.7-10.3-39.8-1.6c-4,8.6,0.8,53.7,0.8,53.7l11.2-1.2c0,0-1.9-39.6,0-40.9
	c1.9-1.4,27.6,5.4,30.3,5.3C129.7,128.9,134.3,116,120.6,114z"/>
<path class="st10" d="M121.4,76.3c-4.7,0.1-8.5,4-8.7,8.9c-0.2,4.1,0.2,9.7-0.9,14.7c-0.6,2.5-3.7,12.8-3.7,12.8l3.2,0.5
	c4.9,0.9,9.9,0.6,14.7-0.8l3.6-1c0,0,2.1-11.4,3.2-22.1c1-8.9-0.6-12.4-5.8-13.2L121.4,76.3L121.4,76.3z"/>
<path class="st11" d="M118.9,76.9c0.2-0.9-0.1-4.5-0.1-4.5s-3.2-0.4-3.3-3.7c-0.1-3.3,0.2-10.9,0.2-10.9l5.8-2.8l6.3,5.2l0.6,3.6
	l-1.5,4.3l-0.7,8.3L118.9,76.9L118.9,76.9z"/>
<path class="st12" d="M118.8,72.4c0,0,2.1,0.1,4.2-1.4c0,0-1,2.4-4.1,2.2L118.8,72.4L118.8,72.4z"/>
<path class="st11" d="M111.9,110.6l-1.5-0.1c0,0-0.9,0.1-2.5-0.1c-0.4-0.1-0.8-0.2-1.2-0.3c-0.5-0.2-1.1-0.5-1.3-0.8
	c-0.4-0.3-0.9-0.1-0.8,0.3s1,1.4,2.5,1.9s-0.8,1.3-1.6,1.5c-0.8,0.3-3.3,1.2-3.4,1.6c-0.1,0.5,0.4,0.7,1.2,0.4
	c0.8-0.3,3.3-1,3.4-0.6s-4,1.8-4,1.8s-0.9,0.1-0.8,0.7c0.3,0.9,4.6-0.8,5-1c0.3-0.1,0.5,0.3,0.2,0.5c-0.3,0.1-4.2,1.2-3.9,2.2
	c0.2,0.7,3.6-1.4,4.5-1.2c1,0.2-2.7,1.4-2.5,2c0.1,0.3,0.2,0.4,2.2-0.5c2-1,7-4.5,7-4.5L111.9,110.6"/>
<path class="st5" d="M116.4,113.7c0,0,7-2.1,11.5-6.5c3.6-3.5,3.5-6.7,3.5-6.7L133,87L116.4,113.7L116.4,113.7z"/>
<path class="st10" d="M126.1,77.3c0,0-1.3,19.8-3.2,21.8c-1.8,2.1-13.8,11.2-13.8,11.2l2.3,6.4c0,0,16.5-9.8,18.3-14.9
	c2.2-6.1,2.6-15.7,2.7-19.7c0-1.7-0.6-3.4-1.9-4.5C129.3,76.5,127.8,76.5,126.1,77.3L126.1,77.3z"/>
<path class="st8" d="M135.3,130.6c-0.1,0.2-3.3-0.3-7.4-0.7c-4-0.3-7.4-0.4-7.4-0.6c0-0.2,3.3-0.5,7.4-0.2
	C132.1,129.5,135.3,130.4,135.3,130.6L135.3,130.6z M134,95.9c0,0-0.2,0-0.2-0.2c-0.1-0.2,0.1-0.5,0.3-0.8c0.1-0.1,0.4-0.2,0.6-0.2
	c0.1,0,0.2,0.1,0.4,0.1c0.1,0.1,0.2,0.1,0.3,0.2c0.3,0.4,0.4,1,0.2,1.5s-0.6,0.9-1,1c-0.1,0-0.2,0-0.4,0c-0.1,0-0.2-0.1-0.3-0.1
	c-0.2-0.1-0.3-0.3-0.4-0.5c-0.1-0.3-0.1-0.7,0-0.8c0.1-0.2,0.2-0.2,0.3-0.1c0,0,0,0.1,0,0.3s0,0.3,0.2,0.4c0.1,0.1,0.1,0.1,0.2,0.2
	c0.1,0,0.1,0,0.1,0c0.1,0,0.1,0,0.1,0c0.2-0.1,0.4-0.3,0.5-0.6c0.1-0.3,0.1-0.6-0.1-0.8c-0.1-0.2-0.2-0.2-0.4-0.2
	c-0.2,0.1-0.3,0.2-0.3,0.3S134.1,95.8,134,95.9L134,95.9z"/>
<path class="st5" d="M125.5,83.6c0.1,0,0.1,0.5,0.1,1.3s0,2-0.1,3.5s-0.3,3.2-0.7,5.1c-0.4,1.9-1.1,4-2.3,5.9
	c-1.2,1.9-2.8,3.4-4.2,4.6s-2.9,2.2-4,3c-2.3,1.6-3.6,2.8-3.7,2.7c0,0,0.3-0.4,0.9-0.9s1.5-1.3,2.6-2.2c1.1-0.9,2.5-1.9,3.9-3.1
	s2.9-2.7,4-4.5s1.8-3.8,2.3-5.7c0.4-1.8,0.7-3.6,0.8-5C125.3,85.4,125.4,83.6,125.5,83.6L125.5,83.6z M121.7,77.4l0.2-2.9l4.6-0.9
	l1.4,3.1L121.7,77.4z M118.8,74.1l1.8,0.3v2.9l-2.3-0.5l0.6-3.3 M113.3,87.9c0,3.1-0.4,6.2-1.1,9.2"/>
<path class="st13" d="M42.9,108.6H158v4H42.9V108.6z M51.9,112.6l-9,59.4l4.5,0.1l15.5-59.5C62.9,112.6,51.9,112.6,51.9,112.6z"/>
<path class="st13" d="M149.6,111.9l5.2,61.3h-4.2l-11.3-58.8l-0.6-4.4L149.6,111.9"/>
<path class="st14" d="M139.1,112.6l0.4,2.7l10.4-0.4l-0.2-2.3C149.7,112.6,139.1,112.6,139.1,112.6z M51.9,112.6l-0.4,2.8l10.7-0.3
	l0.7-2.5H51.9z"/>
<path class="st5" d="M60.1,86.7l7.2,22h32.5l-0.2-1.1l-13.1-0.4l-6-20.4L60.1,86.7L60.1,86.7z"/>
<path class="st10" d="M74.5,97.3c0.2,0.9-0.2,1.8-0.8,2c-0.7,0.2-1.4-0.4-1.6-1.3s0.2-1.8,0.8-2C73.6,95.8,74.3,96.4,74.5,97.3z"/>
<g>
	<path class="st1" d="M139.5,101.8c-1-3.4-1.4-8.3-1.7-11.8c-0.1-0.7-0.1-1.4,0.2-2.1c0.2-0.7,0.8-1.2,1.5-1.2
		c0.6,0,1.1,0.4,1.3,0.9c0.3,0.5,0.4,1.1,0.5,1.7c0.6,3.3,1.2,6.6,1.8,9.9c0.6-1.2,1.4-2.3,2.3-3.1c0.4-0.4,1-0.8,1.5-0.5
		c0.4,0.3,0.5,0.9,0.5,1.4c-0.1,1.6-0.2,3.2-0.6,4.8"/>
	<path class="st2" d="M138.2,101.5c0,0-1.6,6.7,4.9,7.1c6,0.3,4.6-7.1,4.6-7.1H138.2L138.2,101.5z"/>
</g>
<g>
	<path class="st4" d="M123,60.9C123,60.9,123.1,60.9,123,60.9c0.2,0.2,0.3,0.2,0.5,0.4c0.3,0.3,0.7,0.8,0.8,1.5
		c0.1,0.4,0.1,0.8-0.1,1.2c-0.1,0.4-0.4,0.8-0.7,1.2c-0.2,0.2-0.4,0.3-0.6,0.4s-0.5,0.2-0.7,0.2c-0.5,0.1-1.1,0-1.6-0.3
		s-0.9-0.7-1.1-1.2c-0.1-0.3-0.2-0.5-0.2-0.8s0-0.5,0-0.8c0.1-0.5,0.3-1,0.6-1.3s0.6-0.6,0.9-0.8c0.7-0.3,1.3-0.2,1.7-0.1
		c0.2,0.1,0.3,0.1,0.4,0.2C122.9,60.8,123,60.9,123,60.9s-0.2-0.1-0.6-0.2c-0.4-0.1-1-0.1-1.6,0.2c-0.3,0.1-0.6,0.4-0.9,0.7
		c-0.2,0.3-0.4,0.8-0.5,1.2c0,0.2,0,0.5,0,0.7c0,0.3,0.1,0.5,0.2,0.7c0.2,0.5,0.6,0.9,1,1.2c0.5,0.3,1,0.3,1.5,0.3
		c0.2,0,0.5-0.1,0.7-0.2s0.4-0.2,0.6-0.4c0.4-0.3,0.6-0.7,0.7-1.1s0.1-0.8,0.1-1.2c-0.1-0.7-0.5-1.2-0.7-1.5
		C123.2,61,123,60.9,123,60.9L123,60.9z"/>
</g>
<g>
	<path class="st4" d="M115.9,60.3h0.2c0.1,0,0.2,0,0.4,0.1c0.4,0.1,0.9,0.4,1.4,1c0.2,0.3,0.4,0.7,0.4,1.1c0.1,0.4,0,0.9-0.1,1.4
		c-0.1,0.2-0.2,0.5-0.4,0.7c-0.2,0.2-0.3,0.4-0.6,0.5c-0.4,0.3-1,0.5-1.5,0.5c-0.6,0-1.1-0.2-1.5-0.6c-0.2-0.2-0.4-0.4-0.5-0.6
		s-0.2-0.5-0.3-0.7c-0.2-0.5-0.1-1-0.1-1.4c0.1-0.4,0.3-0.8,0.5-1.1c0.5-0.6,1-0.8,1.4-0.9c0.2,0,0.4-0.1,0.5,0
		C115.9,60.3,115.9,60.3,115.9,60.3s-0.2,0-0.6,0.1s-0.9,0.3-1.4,0.9c-0.2,0.3-0.4,0.6-0.5,1.1c-0.1,0.4-0.1,0.9,0.1,1.3
		c0.1,0.2,0.2,0.5,0.3,0.7c0.1,0.2,0.3,0.4,0.5,0.5c0.4,0.3,0.9,0.5,1.4,0.5s1-0.1,1.4-0.4c0.2-0.1,0.4-0.3,0.5-0.5s0.3-0.4,0.4-0.6
		c0.2-0.4,0.2-0.9,0.2-1.3c-0.1-0.4-0.2-0.8-0.4-1.1c-0.4-0.6-0.9-0.9-1.3-1C116.2,60.3,115.9,60.3,115.9,60.3L115.9,60.3z"/>
</g>
<g>
	<path class="st4" d="M118.3,63.2c0,0,0.2-0.1,0.6-0.1c0.3,0,0.5,0.1,0.5,0.1s-0.2,0.1-0.6,0.1S118.3,63.3,118.3,63.2z"/>
</g>
<g>
	<path class="st4" d="M124.2,63.5c0,0,0.6-0.1,1.3,0c0.7,0,1.3,0.1,1.3,0.1s-0.6,0.1-1.3,0C124.7,63.5,124.2,63.5,124.2,63.5z"/>
</g>
<g>
	<path class="st2" d="M126.7,68.7c1.7-1.9,1.8-4.7,1.9-7.4c0-1.3-0.1-2.6-0.7-3.7c-0.6-1.1-1.7-1.8-2.7-2.3
		c-1.7-0.8-3.5-1.1-5.3-0.8s-3.4,1.4-4.3,3.1c0,0,8.2-0.2,8.7,0.2c0.6,0.3,2.2,1.6,2.1,3.1s-0.6,3.8-0.6,3.8l1.3-0.2
		c0,0-0.1-2.1,0.5-2C128.2,62.7,126.7,68.7,126.7,68.7L126.7,68.7z"/>
</g>
<g>
	<path class="st11" d="M127.1,65.1c0.1,0.2,0.3,0.4,0.6,0.4c0.2,0,0.5-0.1,0.7-0.3c0.4-0.3,0.7-0.8,0.8-1.3c0.1-0.5-0.2-1.1-0.6-1.4
		c-0.4-0.3-1.1-0.1-1.3,0.3L127.1,65.1L127.1,65.1z"/>
</g>
<text transform="matrix(0.9965 0 0 1 218.0142 92.2238)" class="st15 st16 st17">Krish Satasiya</text>
<text transform="matrix(1.1454 0 0 1 312.4214 136.4807)" class="st18 st19 st20">#DevelopWorld</text>
</svg>
