<svg id="Layer_1" data-name="Layer 1" xmlns="http://www.w3.org/2000/svg" viewBox="0 0 714.944 169.103"><defs><style>.cls-1{fill:#cde8f9;}.cls-2{fill:#4c8dcb;}.cls-3{fill:#0e548c;}.cls-4{fill:#fdbe56;}.cls-5{fill:#0a4971;}.cls-6,.cls-7,.cls-8{fill:#d3d3d3;}.cls-7{opacity:0.15;}.cls-15,.cls-16,.cls-17,.cls-7,.cls-8{isolation:isolate;}.cls-8{opacity:0.5;}.cls-9{fill:#eaa440;}.cls-10{fill:#fab998;}.cls-11{fill:#f7f8f8;}.cls-12{fill:#ba7a5a;}.cls-13{fill:#a0664c;}.cls-14{fill:#274469;}.cls-15{fill:#0b1438;opacity:0.3;}.cls-16{font-size:77.255px;fill:#fff;font-family:DancingScriptOT, Dancing Script OT;letter-spacing:0.077em;}.cls-17{font-size:28.812px;fill:#e6e7e8;font-family:ComicSansMS, Comic Sans MS;}</style></defs><path class="cls-1" d="M185.1,157.9c28-28.6,29.4-72.3-21.1-121.4-7.3-7.1-10.9-17.1-18.2-22.4C123.8-2.1,92.9,1.2,73.4,25.3c-10.7,13.2-15,31.3-26,44.2C35,83.9,20.2,98,14.5,117.8A68.851,68.851,0,0,0,15.7,158C77,169.4,135,172.9,185.1,157.9Z" transform="translate(-0.2 -4.097)"/><path class="cls-2" d="M162.8,130.4s-3.6,23.3,10,28.8c13.7,5.5,10.2-5.9,10.2-5.9s5.3-1.9-10.1-9.8C165.7,139.8,162.8,130.4,162.8,130.4Z" transform="translate(-0.2 -4.097)"/><path class="cls-3" d="M180.6,160.6s19.3.1,23.5-27c4.2-27.2,14-32.3,14-32.3S176.1,106.4,180.6,160.6Z" transform="translate(-0.2 -4.097)"/><path class="cls-4" d="M180,159.9c4.5,7,15.7-14.4,12.1-28.1-3.6-13.8-10.6-22.1-10.7-31.9C181.4,99.8,157.9,125.5,180,159.9Z" transform="translate(-0.2 -4.097)"/><path class="cls-2" d="M.2,136.2s4.9,23,19.5,22.8c14.6-.3,7.4-9.4,7.4-9.4s4.2-3.8-12.9-5.1c-8-.7-14-8.3-14-8.3Z" transform="translate(-0.2 -4.097)"/><path class="cls-4" d="M26.1,157.7s14.8-4.9,10.2-22c-4.5-17.2,1.4-22.7,1.4-22.7S7.2,126.7,26.1,157.7Z" transform="translate(-0.2 -4.097)"/><path class="cls-3" d="M24.6,157.2c6.6,4.7,9.5-19.4,1.3-30.9-8.2-11.4-17.7-16.4-21.2-25.4C4.7,100.9-8.1,133.9,24.6,157.2Z" transform="translate(-0.2 -4.097)"/><path class="cls-5" d="M99.6,157.9l3.5,4.7s-4.7,5.4-3.1,4.9,10.1-7.7,10.1-7.7-4.1-5.8-4.1-5.9c.1,0-6.4,4-6.4,4Z" transform="translate(-0.2 -4.097)"/><path class="cls-5" d="M94.5,122.8l14.7,32.5-9.3,5.5L84.6,131.7l1-9.6Z" transform="translate(-0.2 -4.097)"/><path class="cls-6" d="M132.5,132.3l11,39.3h1.3l-8.5-39.5Zm-19.8.6-8.4,38.9h1.5l11.2-39Zm9.8-1.1,1.3,39.5h1.8l.8-39.4Z" transform="translate(-0.2 -4.097)"/><path class="cls-6" d="M112.3,148.6l25.1-1.4.2,2.7-27.1,1.7Z" transform="translate(-0.2 -4.097)"/><path class="cls-7" d="M112.7,132.9l-.4,2,4.2-.1.5-2Zm9.8-.2.1,1.9,3.7-.1.1-2.3Z" transform="translate(-0.2 -4.097)"/><path class="cls-8" d="M123,147.8l.1,2.8h-1.6l-.6-2.7,2.5-.1m2.8,0v2.8l1.2-.1.3-2.8Z" transform="translate(-0.2 -4.097)"/><path class="cls-4" d="M104.1,130.1c3.6-1.8,18-.8,18-.8s-4.1-53,1.2-53.4,17.2-4.4,19.3,3.6c2.3,8.4-.8,53.4-3.8,53-6.9-1-28.1,1.6-34.4,0-1.8-.5-.3-2.4-.3-2.4Z" transform="translate(-0.2 -4.097)"/><path class="cls-9" d="M138,80.4a2.958,2.958,0,0,1,.3.4,2.186,2.186,0,0,1,.3.5,5.9,5.9,0,0,0,.4.8,18.131,18.131,0,0,1,1.2,5.3c.2,2.3.2,5.1.2,8.1-.1,3.1-.2,6.4-.5,9.9s-.6,6.9-.9,9.9-.6,5.8-1,8.1a37.116,37.116,0,0,1-1.3,5.3c-.4,1.2-.7,1.8-.8,1.8a12.155,12.155,0,0,1,.5-1.9c.3-1.2.7-3,1.1-5.3.3-2.3.6-5,.8-8,.3-3,.6-6.4.8-9.9s.5-6.8.6-9.9a70.639,70.639,0,0,0-.1-8.1,23.781,23.781,0,0,0-1-5.3c-.4-1.1-.7-1.7-.6-1.7Z" transform="translate(-0.2 -4.097)"/><path class="cls-10" d="M84.6,99.4l-1.3-.7a9.774,9.774,0,0,1-2.2-1.2,2.361,2.361,0,0,1-.9-.8c-.3-.4-.7-1-.9-1.3-.2-.5-.8-.5-.9-.1a4.422,4.422,0,0,0,1.5,2.8c1.1,1.1-1.2.8-2.1.7a15.973,15.973,0,0,0-3.7-.1c-.3.3,0,.8.9.9s3.4.5,3.4,1-4.4-.1-4.4-.1-.9-.3-1,.3c-.1,1,4.5,1.3,4.9,1.3.3,0,.3.5-.1.5-.3,0-4.3-.7-4.4.3-.1.8,3.8.3,4.6.9s-3,0-3.1.8c0,.3,0,.5,2.2.5a82.108,82.108,0,0,0,8.2-1l-.7-4.7" transform="translate(-0.2 -4.097)"/><path class="cls-11" d="M114.1,80.5s-11.3,15.9-13.8,16.6c-2.6.7-17.4,1.6-17.4,1.6l-1.3,6.7s18.9,1,23.1-2.2c6.6-5.1,13.4-16.7,13.4-16.7.2-3.8-1.2-5.7-4-6Z" transform="translate(-0.2 -4.097)"/><path class="cls-3" d="M83.5,163.8l.7,5.9s-6.7,2.2-5.1,2.6,12.5-1.2,12.5-1.2l-.7-7.2c.2-.1-7.4-.1-7.4-.1Zm45.7-53.6s6.3,14.1-6.1,18.9L116.5,114Z" transform="translate(-0.2 -4.097)"/><path class="cls-3" d="M120.6,114s-35.7-10.3-39.8-1.6c-4,8.6.8,53.7.8,53.7l11.2-1.2s-1.9-39.6,0-40.9c1.9-1.4,27.6,5.4,30.3,5.3C129.7,128.9,134.3,116,120.6,114Z" transform="translate(-0.2 -4.097)"/><path class="cls-11" d="M121.4,76.3a9.086,9.086,0,0,0-8.7,8.9c-.2,4.1.2,9.7-.9,14.7-.6,2.5-3.7,12.8-3.7,12.8l3.2.5a31.814,31.814,0,0,0,14.7-.8l3.6-1s2.1-11.4,3.2-22.1c1-8.9-.6-12.4-5.8-13.2l-5.6.2Z" transform="translate(-0.2 -4.097)"/><path class="cls-12" d="M118.9,76.9a30.064,30.064,0,0,0-.1-4.5,3.814,3.814,0,0,1-3.3-3.7c-.1-3.3.2-10.9.2-10.9l5.8-2.8,6.3,5.2.6,3.6-1.5,4.3-.7,8.3-7.3.5Z" transform="translate(-0.2 -4.097)"/><path class="cls-13" d="M118.8,72.4A7.306,7.306,0,0,0,123,71a4.032,4.032,0,0,1-4.1,2.2l-.1-.8Z" transform="translate(-0.2 -4.097)"/><path class="cls-12" d="M111.9,110.6l-1.5-.1a11.834,11.834,0,0,1-2.5-.1l-1.2-.3a3.219,3.219,0,0,1-1.3-.8c-.4-.3-.9-.1-.8.3a4.113,4.113,0,0,0,2.5,1.9c1.5.5-.8,1.3-1.6,1.5-.8.3-3.3,1.2-3.4,1.6-.1.5.4.7,1.2.4s3.3-1,3.4-.6-4,1.8-4,1.8-.9.1-.8.7c.3.9,4.6-.8,5-1a.27.27,0,0,1,.2.5c-.3.1-4.2,1.2-3.9,2.2.2.7,3.6-1.4,4.5-1.2,1,.2-2.7,1.4-2.5,2,.1.3.2.4,2.2-.5,2-1,7-4.5,7-4.5l-2.5-3.8" transform="translate(-0.2 -4.097)"/><path class="cls-6" d="M116.4,113.7s7-2.1,11.5-6.5c3.6-3.5,3.5-6.7,3.5-6.7L133,87l-16.6,26.7Z" transform="translate(-0.2 -4.097)"/><path class="cls-11" d="M126.1,77.3s-1.3,19.8-3.2,21.8c-1.8,2.1-13.8,11.2-13.8,11.2l2.3,6.4s16.5-9.8,18.3-14.9c2.2-6.1,2.6-15.7,2.7-19.7a5.826,5.826,0,0,0-1.9-4.5c-1.2-1.1-2.7-1.1-4.4-.3Z" transform="translate(-0.2 -4.097)"/><path class="cls-9" d="M135.3,130.6c-.1.2-3.3-.3-7.4-.7-4-.3-7.4-.4-7.4-.6s3.3-.5,7.4-.2c4.2.4,7.4,1.3,7.4,1.5ZM134,95.9a.2.2,0,0,1-.2-.2c-.1-.2.1-.5.3-.8a1.072,1.072,0,0,1,.6-.2c.1,0,.2.1.4.1.1.1.2.1.3.2a1.6,1.6,0,0,1,.2,1.5,1.643,1.643,0,0,1-1,1h-.4c-.1,0-.2-.1-.3-.1a1,1,0,0,1-.4-.5,1.069,1.069,0,0,1,0-.8c.1-.2.2-.2.3-.1v.3c0,.2,0,.3.2.4l.2.2h.2a1.024,1.024,0,0,0,.5-.6.755.755,0,0,0-.1-.8c-.1-.2-.2-.2-.4-.2q-.3.15-.3.3a.367.367,0,0,1-.1.3Z" transform="translate(-0.2 -4.097)"/><path class="cls-6" d="M125.5,83.6c.1,0,.1.5.1,1.3s0,2-.1,3.5a36.276,36.276,0,0,1-.7,5.1,18.052,18.052,0,0,1-2.3,5.9,20.943,20.943,0,0,1-4.2,4.6c-1.4,1.2-2.9,2.2-4,3-2.3,1.6-3.6,2.8-3.7,2.7a6.053,6.053,0,0,1,.9-.9c.6-.5,1.5-1.3,2.6-2.2s2.5-1.9,3.9-3.1a19.5,19.5,0,0,0,4-4.5,21.313,21.313,0,0,0,2.3-5.7,36.562,36.562,0,0,0,.8-5,39.979,39.979,0,0,1,.4-4.7Zm-3.8-6.2.2-2.9,4.6-.9,1.4,3.1Zm-2.9-3.3,1.8.3v2.9l-2.3-.5.6-3.3m-5.6,14.4a40.613,40.613,0,0,1-1.1,9.2" transform="translate(-0.2 -4.097)"/><path class="cls-14" d="M42.9,108.6H158v4H42.9Zm9,4-9,59.4,4.5.1,15.5-59.5Z" transform="translate(-0.2 -4.097)"/><path class="cls-14" d="M149.6,111.9l5.2,61.3h-4.2l-11.3-58.8-.6-4.4,10.9,1.9" transform="translate(-0.2 -4.097)"/><path class="cls-15" d="M139.1,112.6l.4,2.7,10.4-.4-.2-2.3Zm-87.2,0-.4,2.8,10.7-.3.7-2.5Z" transform="translate(-0.2 -4.097)"/><path class="cls-6" d="M60.1,86.7l7.2,22H99.8l-.2-1.1-13.1-.4-6-20.4-20.4-.1Z" transform="translate(-0.2 -4.097)"/><path class="cls-11" d="M74.5,97.3a1.712,1.712,0,0,1-.8,2c-.7.2-1.4-.4-1.6-1.3a1.712,1.712,0,0,1,.8-2C73.6,95.8,74.3,96.4,74.5,97.3Z" transform="translate(-0.2 -4.097)"/><path class="cls-2" d="M139.5,101.8c-1-3.4-1.4-8.3-1.7-11.8a3.8,3.8,0,0,1,.2-2.1,1.593,1.593,0,0,1,1.5-1.2,1.424,1.424,0,0,1,1.3.9,4.8,4.8,0,0,1,.5,1.7l1.8,9.9a10.445,10.445,0,0,1,2.3-3.1c.4-.4,1-.8,1.5-.5a1.741,1.741,0,0,1,.5,1.4,26.257,26.257,0,0,1-.6,4.8" transform="translate(-0.2 -4.097)"/><path class="cls-3" d="M138.2,101.5s-1.6,6.7,4.9,7.1c6,.3,4.6-7.1,4.6-7.1Z" transform="translate(-0.2 -4.097)"/><path class="cls-5" d="M123,60.9h0c.2.2.3.2.5.4a2.677,2.677,0,0,1,.8,1.5,1.672,1.672,0,0,1-.1,1.2,3.746,3.746,0,0,1-.7,1.2,2.092,2.092,0,0,1-.6.4,1.854,1.854,0,0,1-.7.2,2.318,2.318,0,0,1-1.6-.3,2.545,2.545,0,0,1-1.1-1.2,2.353,2.353,0,0,1-.2-.8v-.8a2.618,2.618,0,0,1,.6-1.3,6.47,6.47,0,0,1,.9-.8,2.556,2.556,0,0,1,1.7-.1c.2.1.3.1.4.2a.349.349,0,0,0,.1.2,3.224,3.224,0,0,0-.6-.2,2.37,2.37,0,0,0-1.6.2,2.757,2.757,0,0,0-.9.7,4.328,4.328,0,0,0-.5,1.2v.7a1.445,1.445,0,0,0,.2.7,2.94,2.94,0,0,0,1,1.2,2.7,2.7,0,0,0,1.5.3,1.854,1.854,0,0,0,.7-.2,2.092,2.092,0,0,0,.6-.4,1.9,1.9,0,0,0,.7-1.1,4.869,4.869,0,0,0,.1-1.2,3.493,3.493,0,0,0-.7-1.5,2.22,2.22,0,0,0-.5-.4Z" transform="translate(-0.2 -4.097)"/><path class="cls-5" d="M115.9,60.3h.2a.756.756,0,0,1,.4.1,2.824,2.824,0,0,1,1.4,1,2.1,2.1,0,0,1,.4,1.1,3.437,3.437,0,0,1-.1,1.4,2.506,2.506,0,0,1-.4.7c-.2.2-.3.4-.6.5a2.7,2.7,0,0,1-1.5.5,2.035,2.035,0,0,1-1.5-.6,2.651,2.651,0,0,1-.5-.6c-.1-.2-.2-.5-.3-.7a3.437,3.437,0,0,1-.1-1.4,3.7,3.7,0,0,1,.5-1.1,2.527,2.527,0,0,1,1.4-.9c.2,0,.4-.1.5,0h.2a2.8,2.8,0,0,0-.6.1,2.527,2.527,0,0,0-1.4.9,2.812,2.812,0,0,0-.5,1.1,1.95,1.95,0,0,0,.1,1.3c.1.2.2.5.3.7a1.205,1.205,0,0,0,.5.5,2.389,2.389,0,0,0,1.4.5,2.3,2.3,0,0,0,1.4-.4,1.205,1.205,0,0,0,.5-.5c.1-.2.3-.4.4-.6a2.953,2.953,0,0,0,.2-1.3,3.582,3.582,0,0,0-.4-1.1,2.3,2.3,0,0,0-1.3-1,1.191,1.191,0,0,0-.6-.2Z" transform="translate(-0.2 -4.097)"/><path class="cls-5" d="M118.3,63.2a1.452,1.452,0,0,1,.6-.1,1.213,1.213,0,0,1,.5.1,1.452,1.452,0,0,1-.6.1C118.4,63.3,118.3,63.3,118.3,63.2Z" transform="translate(-0.2 -4.097)"/><path class="cls-5" d="M124.2,63.5a4.741,4.741,0,0,1,1.3,0,8.868,8.868,0,0,1,1.3.1,4.741,4.741,0,0,1-1.3,0A11.617,11.617,0,0,0,124.2,63.5Z" transform="translate(-0.2 -4.097)"/><path class="cls-3" d="M126.7,68.7c1.7-1.9,1.8-4.7,1.9-7.4a7.657,7.657,0,0,0-.7-3.7,5.988,5.988,0,0,0-2.7-2.3,8.892,8.892,0,0,0-5.3-.8,5.947,5.947,0,0,0-4.3,3.1s8.2-.2,8.7.2c.6.3,2.2,1.6,2.1,3.1a33.418,33.418,0,0,1-.6,3.8l1.3-.2s-.1-2.1.5-2c.6.2-.9,6.2-.9,6.2Z" transform="translate(-0.2 -4.097)"/><path class="cls-12" d="M127.1,65.1a.675.675,0,0,0,.6.4,1.08,1.08,0,0,0,.7-.3,2.223,2.223,0,0,0,.8-1.3,1.537,1.537,0,0,0-.6-1.4.952.952,0,0,0-1.3.3l-.2,2.3Z" transform="translate(-0.2 -4.097)"/><text class="cls-16" transform="translate(217.707 83.885)">Krish Satasiya</text><text class="cls-17" transform="translate(312.222 132.383) scale(1.145 1)">#DevelopWorld</text></svg>