<?xml version="1.0" encoding="UTF-8"?>
<svg width="14px" height="11px" viewBox="0 0 14 11" version="1.1" xmlns="http://www.w3.org/2000/svg" xmlns:xlink="http://www.w3.org/1999/xlink">
    <title>e</title>
    <g id="Web" stroke="none" stroke-width="1" fill="none" fill-rule="evenodd">
        <g id="Footer-Ver-1-1" transform="translate(-796.000000, -5246.000000)" fill="#FFFFFF" fill-rule="nonzero">
            <path d="M808.68747,5257 C809.412344,5257 809.999967,5256.41238 809.999967,5255.6875 L809.999967,5247.81252 C809.999967,5247.08765 809.412344,5246.50003 808.68747,5246.50003 L797.312497,5246.50003 C796.587622,5246.50003 796,5247.08765 796,5247.81252 L796,5255.6875 C796,5256.41238 796.587622,5257 797.312497,5257 L808.68747,5257 Z M802.999983,5253.0624 C802.365391,5253.07266 801.452902,5252.2022 800.992599,5251.84011 C798.903344,5250.20413 797.925674,5249.42764 797.312497,5248.92827 L797.312497,5247.81252 L808.68747,5247.81252 L808.68747,5248.92827 C808.074373,5249.42756 807.096943,5250.20389 805.007368,5251.84011 C804.546878,5252.20233 803.634683,5253.07255 802.999983,5253.0624 Z M808.68747,5255.6875 L797.312497,5255.6875 L797.312497,5250.61247 C797.939052,5251.11152 798.827588,5251.8118 800.181901,5252.87231 C800.779537,5253.34276 801.826181,5254.38131 802.999983,5254.37498 C804.168018,5254.38131 805.20139,5253.35782 805.817825,5252.87252 C807.172112,5251.81204 808.060888,5251.11157 808.68747,5250.61247 L808.68747,5255.6875 Z" id="e"></path>
        </g>
    </g>
</svg>