<?xml version="1.0" encoding="UTF-8"?>
<svg width="38px" height="16px" viewBox="0 0 38 16" version="1.1" xmlns="http://www.w3.org/2000/svg" xmlns:xlink="http://www.w3.org/1999/xlink">
    <title>new-tag</title>
    <g id="Page-1" stroke="none" stroke-width="1" fill="none" fill-rule="evenodd">
        <g id="new-tag" fill-rule="nonzero">
            <path d="M1,0 L38,0 L34.4585314,8 L38,16 L1,16 C0.44771525,16 0,15.5522847 0,15 L0,1 C0,0.44771525 0.44771525,0 1,0 Z" id="Rectangle" fill="#FFF800"></path>
            <path d="M8.25097656,12 L8.25004883,8.51035156 C8.24448242,8.09492188 8.21386719,7.45800781 8.15820312,6.59960938 L8.15820312,6.59960938 L8.20214844,6.59960938 L11.3076172,12 L13.2314453,12 L13.2314453,4.86132812 L11.8691406,4.86132812 L11.869873,8.36362305 C11.8742676,8.75825195 11.8984375,9.37304688 11.9423828,10.2080078 L11.9423828,10.2080078 L11.9082031,10.2080078 L8.80761719,4.86132812 L6.8984375,4.86132812 L6.8984375,12 L8.25097656,12 Z M19.1396484,12 L19.1396484,10.75 L16.5419922,10.75 L16.5419922,8.90917969 L18.9589844,8.90917969 L18.9589844,7.66894531 L16.5419922,7.66894531 L16.5419922,6.1015625 L19.1396484,6.1015625 L19.1396484,4.86132812 L15.0283203,4.86132812 L15.0283203,12 L19.1396484,12 Z M23.2705078,12 L24.2324219,8.25976562 C24.2747396,8.09375 24.3349609,7.81624349 24.4130859,7.42724609 C24.4912109,7.0382487 24.5400391,6.75585938 24.5595703,6.58007812 C24.5725911,6.72330729 24.6222331,7.00406901 24.7084961,7.42236328 C24.7947591,7.84065755 24.8557943,8.11653646 24.8916016,8.25 L24.8916016,8.25 L25.8583984,12 L27.5820312,12 L29.3984375,4.86132812 L27.9091797,4.86132812 L27.0009766,8.7578125 C26.9423828,8.9921875 26.8772786,9.29899089 26.8056641,9.67822266 C26.7340495,10.0574544 26.6819661,10.3740234 26.6494141,10.6279297 C26.6136068,10.3642578 26.5615234,10.0485026 26.4931641,9.68066406 C26.4248047,9.31282552 26.3678385,9.03938802 26.3222656,8.86035156 L26.3222656,8.86035156 L25.2822266,4.86132812 L23.8515625,4.86132812 L22.8115234,8.86035156 C22.7496745,9.07519531 22.6837565,9.37711589 22.6137695,9.76611328 C22.5437826,10.1551107 22.4990234,10.4423828 22.4794922,10.6279297 C22.4078776,10.1005859 22.2923177,9.47721354 22.1328125,8.7578125 L22.1328125,8.7578125 L21.2197266,4.86132812 L19.7304688,4.86132812 L21.5517578,12 L23.2705078,12 Z" id="NEW" fill="#222222"></path>
        </g>
    </g>
</svg>