<?xml version="1.0" encoding="UTF-8"?>
<svg width="14px" height="15px" viewBox="0 0 14 15" version="1.1" xmlns="http://www.w3.org/2000/svg" xmlns:xlink="http://www.w3.org/1999/xlink">
    <title>p</title>
    <g id="Web" stroke="none" stroke-width="1" fill="none" fill-rule="evenodd">
        <g id="Footer-Ver-1-1" transform="translate(-955.000000, -5236.000000)" fill="#FFFFFF" fill-rule="nonzero">
            <g id="Group" transform="translate(955.000000, 5200.000000)">
                <path d="M1.49023082,50.7499958 C8.38631347,50.7499958 13.9999666,45.16641 13.9999666,38.24026 C13.9999666,37.8410529 13.7265298,37.4965065 13.3382441,37.4090013 L10.582006,36.7718988 C10.1800485,36.6789463 9.76716955,36.8867476 9.60310744,37.2668355 L8.3316261,40.2336253 C8.18123583,40.5808688 8.28241281,40.991024 8.57496887,41.2316698 L10.0488042,42.4375156 C9.11911888,44.329704 7.57967477,45.8718718 5.68476275,46.8015571 L4.47889023,45.3277485 C4.23827115,45.0351657 3.82811587,44.9339887 3.48084574,45.084379 L0.516806324,46.3558603 C0.136718424,46.5199224 -0.0710828994,46.9300777 0.0218696073,47.3320352 L0.656248435,50.0855496 C0.746477255,50.476559 1.0910237,50.7499958 1.49023082,50.7499958 Z M1.50662635,49.8749979 L0.877721601,47.1515776 L3.81444403,45.8937681 L5.44139328,47.884383 C8.27418834,46.5554639 9.80818508,45.0160198 11.1316034,42.1941462 L9.14098849,40.5671969 L10.398798,37.6305012 L13.122245,38.2594059 C13.1167709,44.6715 7.91872044,49.8668001 1.50662635,49.8749979 Z" id="p" transform="translate(6.999895, 43.749925) rotate(90.000000) translate(-6.999895, -43.749925) "></path>
            </g>
        </g>
    </g>
</svg>