<?xml version="1.0" encoding="UTF-8"?>
<svg width="18px" height="16px" viewBox="0 0 18 16" version="1.1" xmlns="http://www.w3.org/2000/svg" xmlns:xlink="http://www.w3.org/1999/xlink">
    <title>t</title>
    <g id="Web" stroke="none" stroke-width="1" fill="none" fill-rule="evenodd">
        <g id="Footer-Ver-1-1" transform="translate(-169.000000, -5258.000000)" fill="#FFFFFF" fill-rule="nonzero">
            <g id="Group-3" transform="translate(100.000000, 5243.000000)">
                <g id="Group-2-Copy" transform="translate(56.000000, 1.000000)">
                    <path d="M18.6649493,29.5596491 C25.449231,29.5596491 29.1611248,23.9403616 29.1611248,19.0635079 C29.1611248,18.9036229 29.1611248,18.7436692 29.1496922,18.5837841 C29.8692263,18.0583986 30.4974368,17.4073915 30.9998884,16.6764591 C30.3374831,16.9619657 29.617949,17.1675812 28.8755496,17.2475065 C29.6407455,16.7906823 30.2232255,16.0711482 30.4973681,15.2145257 C29.7891979,15.6371206 28.9897385,15.9454924 28.1560155,16.1053774 C27.4821089,15.3858433 26.5227644,14.9404174 25.4605607,14.9404174 C23.4161815,14.9404174 21.7714978,16.5964995 21.7714978,18.6294803 C21.7714978,18.9150211 21.8057613,19.2005277 21.8628558,19.4746359 C18.8020034,19.3147165 16.072285,17.8528174 14.256318,15.6142554 C13.9364792,16.1624719 13.7537976,16.790648 13.7537976,17.4759186 C13.7537976,18.7551018 14.4047704,19.8857982 15.3984127,20.5482379 C14.7931361,20.5254413 14.2220201,20.3541237 13.7309324,20.0800155 L13.7309324,20.1256773 C13.7309324,21.9188134 14.9987173,23.4035435 16.6890629,23.7462131 C16.3807254,23.8261384 16.0494884,23.8718346 15.7182858,23.8718346 C15.4784067,23.8718346 15.2499946,23.8490037 15.0215482,23.8147401 C15.4898393,25.2766736 16.8489822,26.338843 18.4708007,26.3731409 C17.2030158,27.3667832 15.6154265,27.9492632 13.8908518,27.9492632 C13.58248,27.9492632 13.2969735,27.9378306 13,27.9036014 C14.6332511,28.9543039 16.5748397,29.5596491 18.6649493,29.5596491 Z" id="t"></path>
                </g>
            </g>
        </g>
    </g>
</svg>