<?xml version="1.0" encoding="UTF-8"?>
<svg width="20px" height="14px" viewBox="0 0 20 14" version="1.1" xmlns="http://www.w3.org/2000/svg" xmlns:xlink="http://www.w3.org/1999/xlink">
    <title>y</title>
    <g id="Web" stroke="none" stroke-width="1" fill="none" fill-rule="evenodd">
        <g id="Footer-Ver-1-1" transform="translate(-279.000000, -5258.000000)" fill="#FFFFFF" fill-rule="nonzero">
            <g id="Group-3" transform="translate(100.000000, 5243.000000)">
                <g id="Group-2-Copy-3" transform="translate(168.000000, 0.000000)">
                    <path d="M28.6262855,28.5961847 C29.4523524,28.3739868 30.1029475,27.7464286 30.3237721,26.9150059 C30.671484,25.6088994 30.7178456,23.0730227 30.7240271,22.4200086 L30.7240271,22.107285 C30.7178456,21.4542778 30.671484,18.9184269 30.3237721,17.6123204 C30.1029475,16.7808633 29.4523524,16.1260454 28.6262855,15.9038474 C27.3161518,15.5505091 22.5555619,15.5063418 21.3858852,15.5008209 L20.8640679,15.5008209 C19.6943973,15.5063418 14.9338299,15.5505091 13.6236662,15.9038474 C12.7975993,16.1260797 12.1470043,16.7808633 11.9261796,17.6123204 C11.5383471,19.0691315 11.5254194,22.0558465 11.5249736,22.2533421 L11.5249736,22.263646 C11.5249736,22.263646 11.5249736,25.4079599 11.9261796,26.9150059 C12.1470043,27.7464286 12.7975993,28.3739868 13.6236662,28.5961847 C14.9338299,28.9495231 19.6943973,28.9936904 20.8640679,28.9992113 L21.3858838,28.9992113 C22.5555544,28.9936904 27.3161218,28.9495231 28.6262855,28.5961847 Z M19.1613117,25.1184365 L19.1613117,19.4088554 L24.1794768,22.2637146 L19.1613117,25.1184365 Z" id="y"></path>
                </g>
            </g>
        </g>
    </g>
</svg>