<svg id="Layer_1" data-name="Layer 1" xmlns="http://www.w3.org/2000/svg" viewBox="0 0 136.64 148.56"><defs><style>.cls-1{fill:#3c759b;stroke:#3c759b;}.cls-1,.cls-20,.cls-21,.cls-22,.cls-23,.cls-24,.cls-25,.cls-26,.cls-27,.cls-28{stroke-miterlimit:10;}.cls-2{font-size:10px;font-family:CopperplateGothic-Bold, Copperplate Gothic Bold;font-weight:700;}.cls-19,.cls-2{fill:#fff;}.cls-3{letter-spacing:0em;}.cls-4{letter-spacing:0.01em;}.cls-5{letter-spacing:-0.06em;}.cls-6{letter-spacing:-0.02em;}.cls-7{letter-spacing:0.03em;}.cls-8{letter-spacing:0.01em;}.cls-9{letter-spacing:0.01em;}.cls-10{letter-spacing:-0.07em;}.cls-11{letter-spacing:-0.07em;}.cls-12{letter-spacing:0em;}.cls-13{letter-spacing:0em;}.cls-14{letter-spacing:0.01em;}.cls-15{letter-spacing:-0.06em;}.cls-16{letter-spacing:0em;}.cls-17{letter-spacing:0.01em;}.cls-18{letter-spacing:0.02em;}.cls-19{font-size:8px;font-family:KristenITC-Regular, Kristen ITC;}.cls-20{fill:#b980b2;stroke:#b980b2;}.cls-21{fill:#e57357;stroke:#e57357;}.cls-22{fill:#fab076;stroke:#fab076;}.cls-23{fill:#6b919e;stroke:#6b919e;}.cls-24{fill:#9498ab;stroke:#9498ab;}.cls-25{fill:#cace39;stroke:#cace39;}.cls-26{fill:#ffed8f;stroke:#ffed8f;}.cls-27{fill:#9597be;stroke:#9597be;}.cls-28{fill:#006085;stroke:#006085;}</style></defs><rect class="cls-1" x="0.5" y="18.03" width="7.94" height="6.77"/><text class="cls-2" transform="translate(13.01 23.97)">dia<tspan class="cls-3" x="16.87" y="0">t</tspan><tspan x="22.54" y="0">omic nonm</tspan><tspan class="cls-4" x="80.42" y="0">e</tspan><tspan class="cls-5" x="86.89" y="0">t</tspan><tspan x="91.98" y="0">al</tspan></text><text class="cls-2" transform="translate(13.59 36.14)">noble <tspan class="cls-6" x="36" y="0">g</tspan><tspan x="43.03" y="0">as</tspan></text><text class="cls-2" transform="translate(13.56 48.06)">al<tspan class="cls-7" x="12.68" y="0">k</tspan><tspan x="19.82" y="0">ali m</tspan><tspan class="cls-4" x="46.09" y="0">e</tspan><tspan class="cls-5" x="52.56" y="0">t</tspan><tspan x="57.65" y="0">al</tspan></text><text class="cls-2" transform="translate(13.62 60.97)">al<tspan class="cls-7" x="12.68" y="0">k</tspan><tspan x="19.82" y="0">aline ea</tspan><tspan class="cls-8" x="65.11" y="0">r</tspan><tspan class="cls-9" x="72.03" y="0">t</tspan><tspan x="77.78" y="0">h m</tspan><tspan class="cls-4" x="95.72" y="0">e</tspan><tspan class="cls-5" x="102.2" y="0">t</tspan><tspan x="107.29" y="0">al</tspan></text><text class="cls-2" transform="translate(14.07 74.77)">m<tspan class="cls-4" x="8.19" y="0">e</tspan><tspan class="cls-5" x="14.66" y="0">t</tspan><tspan x="19.75" y="0">alloid</tspan></text><text class="cls-2" transform="translate(14.62 87.99)">po<tspan class="cls-10" x="13.65" y="0">l</tspan><tspan class="cls-11" x="18.69" y="0">y</tspan><tspan class="cls-12" x="24" y="0">a</tspan><tspan class="cls-13" x="30.94" y="0">t</tspan><tspan x="36.61" y="0">omic nonm</tspan><tspan class="cls-14" x="94.48" y="0">e</tspan><tspan class="cls-15" x="100.96" y="0">t</tspan><tspan class="cls-16" x="106.04" y="0">al</tspan></text><text class="cls-2" transform="translate(14.52 100.89)">po<tspan class="cls-17" x="13.65" y="0">s</tspan><tspan x="19.89" y="0">t-t</tspan><tspan class="cls-18" x="33.49" y="0">r</tspan><tspan x="40.61" y="0">ansition m</tspan><tspan class="cls-4" x="97.87" y="0">e</tspan><tspan class="cls-5" x="104.35" y="0">t</tspan><tspan x="109.43" y="0">al</tspan></text><text class="cls-2" transform="translate(15.01 115.48)">t<tspan class="cls-18" x="5.69" y="0">r</tspan><tspan x="12.8" y="0">ansition m</tspan><tspan class="cls-4" x="70.07" y="0">e</tspan><tspan class="cls-5" x="76.54" y="0">t</tspan><tspan x="81.63" y="0">al</tspan></text><text class="cls-2" transform="translate(16.14 130.78)">lan<tspan class="cls-9" x="20.12" y="0">t</tspan><tspan x="25.87" y="0">hanide</tspan></text><text class="cls-2" transform="translate(16.29 146.06)">actinide</text><text class="cls-19" transform="translate(5.18 7.12)">identify of Table color </text><rect class="cls-20" x="0.5" y="29.8" width="7.94" height="6.77"/><rect class="cls-21" x="0.5" y="42.06" width="7.94" height="6.77"/><rect class="cls-22" x="0.5" y="54.83" width="7.94" height="6.77"/><rect class="cls-23" x="0.5" y="68.1" width="7.94" height="6.77"/><rect class="cls-24" x="0.5" y="81.86" width="7.94" height="6.77"/><rect class="cls-25" x="0.5" y="95.13" width="7.94" height="6.77"/><rect class="cls-26" x="0.5" y="108.9" width="7.94" height="6.77"/><rect class="cls-27" x="0.5" y="123.16" width="7.94" height="6.77"/><rect class="cls-28" x="0.5" y="137.93" width="7.94" height="6.77"/></svg>