<svg id="Layer_1" data-name="Layer 1" xmlns="http://www.w3.org/2000/svg" viewBox="0 0 210.8 80"><defs><style>.cls-1{fill:#fff;}</style></defs><title>Mr. Krish Satasiyalogo_white</title><path class="cls-1" d="M45.91,71.25V59.85h1.32v10.2h5v1.2Z"/><path class="cls-1" d="M57.61,71.41a3.93,3.93,0,0,1-3-1.16,4.47,4.47,0,0,1-1.1-3.2,4.93,4.93,0,0,1,1-3.28,3.36,3.36,0,0,1,2.73-1.22,3.2,3.2,0,0,1,2.54,1.06,4,4,0,0,1,.94,2.78v.82H54.86a3.43,3.43,0,0,0,.76,2.29,2.64,2.64,0,0,0,2,.78,6.93,6.93,0,0,0,2.72-.58v1.15a7,7,0,0,1-1.29.43A7.75,7.75,0,0,1,57.61,71.41Zm-.35-7.78a2.12,2.12,0,0,0-1.64.67,3.08,3.08,0,0,0-.72,1.86h4.46a2.89,2.89,0,0,0-.54-1.88A2,2,0,0,0,57.26,63.63Z"/><path class="cls-1" d="M68.21,71.25,68,70h-.06a3.53,3.53,0,0,1-1.27,1.09,3.93,3.93,0,0,1-1.59.29,2.83,2.83,0,0,1-2-.66,2.4,2.4,0,0,1-.72-1.86c0-1.73,1.38-2.63,4.14-2.72l1.45,0V65.6a2.17,2.17,0,0,0-.44-1.49,1.75,1.75,0,0,0-1.38-.48,5.63,5.63,0,0,0-2.42.66l-.39-1a6.24,6.24,0,0,1,2.89-.74,3.25,3.25,0,0,1,2.26.68,2.86,2.86,0,0,1,.74,2.18v5.83Zm-2.92-.91a2.65,2.65,0,0,0,1.9-.66,2.48,2.48,0,0,0,.69-1.86v-.77l-1.3,0a4.75,4.75,0,0,0-2.22.48,1.45,1.45,0,0,0-.69,1.32A1.34,1.34,0,0,0,64.1,70,1.73,1.73,0,0,0,65.29,70.34Z"/><path class="cls-1" d="M75.74,62.55a5.3,5.3,0,0,1,1,.09l-.18,1.2a5,5,0,0,0-.94-.11,2.27,2.27,0,0,0-1.77.84,3.08,3.08,0,0,0-.74,2.1v4.58H71.84V62.71h1.07l.14,1.58h.07A3.61,3.61,0,0,1,74.26,63,2.61,2.61,0,0,1,75.74,62.55Z"/><path class="cls-1" d="M84.2,71.25V65.72a2.29,2.29,0,0,0-.47-1.56,2,2,0,0,0-1.49-.51,2.47,2.47,0,0,0-2,.72,3.72,3.72,0,0,0-.62,2.4v4.48h-1.3V62.71h1.06l.21,1.16h.06a2.66,2.66,0,0,1,1.12-1,3.47,3.47,0,0,1,1.59-.35,3.29,3.29,0,0,1,2.33.74,3.18,3.18,0,0,1,.78,2.39v5.57Z"/><path class="cls-1" d="M92.5,71.25V59.85h1.32v10.2h5v1.2Z"/><path class="cls-1" d="M100.79,71.25V59.85h1.32v11.4Z"/><path class="cls-1" d="M111.75,59.85h1.42l-4.11,11.4h-1.3l-4.09-11.4h1.4l2.62,7.38a21.22,21.22,0,0,1,.72,2.47,21.73,21.73,0,0,1,.73-2.52Z"/><path class="cls-1" d="M121.09,71.25h-6.35V59.85h6.35V61h-5V64.7h4.72v1.17h-4.72v4.19h5Z"/><path class="cls-1" d="M137.66,65.54a6.29,6.29,0,0,1-1.38,4.3,4.89,4.89,0,0,1-3.85,1.57,5,5,0,0,1-3.89-1.54,6.35,6.35,0,0,1-1.36-4.35,6.24,6.24,0,0,1,1.37-4.32,5,5,0,0,1,3.9-1.53,4.85,4.85,0,0,1,3.83,1.56A6.29,6.29,0,0,1,137.66,65.54Zm-9.08,0a5.4,5.4,0,0,0,1,3.51,4,4,0,0,0,5.72,0,5.44,5.44,0,0,0,1-3.51,5.44,5.44,0,0,0-1-3.49,3.45,3.45,0,0,0-2.85-1.19,3.52,3.52,0,0,0-2.88,1.19A5.36,5.36,0,0,0,128.58,65.54Z"/><path class="cls-1" d="M145.86,71.25V65.72a2.24,2.24,0,0,0-.48-1.56,2,2,0,0,0-1.49-.51,2.45,2.45,0,0,0-2,.72,3.65,3.65,0,0,0-.63,2.4v4.48H140V62.71h1.05l.21,1.16h.06a2.66,2.66,0,0,1,1.12-1,3.51,3.51,0,0,1,1.6-.35,3.26,3.26,0,0,1,2.32.74,3.18,3.18,0,0,1,.78,2.39v5.57Z"/><path class="cls-1" d="M151.1,71.25h-1.29V59.12h1.29Z"/><path class="cls-1" d="M153.74,60.39a.84.84,0,0,1,.22-.65.73.73,0,0,1,.54-.21.76.76,0,0,1,.54.21,1,1,0,0,1,0,1.3.76.76,0,0,1-.54.21A.73.73,0,0,1,154,61,.85.85,0,0,1,153.74,60.39Zm1.4,10.86h-1.29V62.71h1.29Z"/><path class="cls-1" d="M163.73,71.25V65.72a2.24,2.24,0,0,0-.47-1.56,2,2,0,0,0-1.49-.51,2.47,2.47,0,0,0-2,.72,3.72,3.72,0,0,0-.62,2.4v4.48h-1.29V62.71h1.05l.21,1.16h.06a2.66,2.66,0,0,1,1.12-1,3.47,3.47,0,0,1,1.59-.35,3.29,3.29,0,0,1,2.33.74,3.18,3.18,0,0,1,.78,2.39v5.57Z"/><path class="cls-1" d="M171.3,71.41a3.92,3.92,0,0,1-3-1.16,4.47,4.47,0,0,1-1.1-3.2,4.93,4.93,0,0,1,1-3.28A3.36,3.36,0,0,1,171,62.55a3.2,3.2,0,0,1,2.54,1.06,4,4,0,0,1,.94,2.78v.82h-5.89a3.43,3.43,0,0,0,.76,2.29,2.63,2.63,0,0,0,2,.78,7,7,0,0,0,2.73-.58v1.15a7,7,0,0,1-1.3.43A7.63,7.63,0,0,1,171.3,71.41ZM171,63.63a2.15,2.15,0,0,0-1.65.67,3.21,3.21,0,0,0-.72,1.86h4.47a2.83,2.83,0,0,0-.55-1.88A1.92,1.92,0,0,0,171,63.63Z"/><path class="cls-1" d="M188.9,40.6c-.7,0-1.3.6-1.6,2-.6,2.9-1.2,5.9-3.9,5.8-1.7,0-2.2-2.5-2.1-3.1l.3-15.7a2.81,2.81,0,0,0-3.1-3c-.9,0-2.1.2-2.1.7s.7.6.6,2.6l-.2,9.4c0,4.7-3,9-5.6,8.9,0,0-5.8,1.8-2.4-18,.3-1.5,1.5-3.6-1-3.7-3.5-.1-3.1,1.3-3.6,2.4a120.42,120.42,0,0,0-1.1,13.9v.3c-.8,2.4-2,4.8-4,4.7-1.4,0-2.3-1-2.2-3.1l.3-20.5c3.5.1,7,.1,12.4.1,1.7,0,2.5-6.4.5-4.5-4.5.1-8.8.1-12.8.1l.1-6.3c0-1.6-1.4-3-3.6-3-.9,0-2.1.2-2.2.7s.7.6.6,2.6l-.1,5.9c-3.6-.1-6-.3-6-.3-1.9,0-.8,4.5,1.3,4.5a43.64,43.64,0,0,0,4.6.2l-.3,17.3c-.7,2.8-2,6.3-4.4,6.2-1.7,0-1.7-2.5-1.7-3.1l.2-12.5c.1-3.1-1-6.8-5.4-6.8-3.3-.1-5.7,2.8-7.6,6.5v-3c0-1.6-1.4-3-3.6-3-.9,0-1.7.4-1.8,1.1a21,21,0,0,1,.2,2.1l-.2,10.3a9.44,9.44,0,0,0-.3.9c-.6,2.9-1.9,7.2-4.6,7.1-1.6,0-2.3-1.6-2.2-3.1l.2-9.7c0-1.6-1.4-3-3.6-3-.9,0-1.8.4-1.8,1.1a8.44,8.44,0,0,1,.2,2.1l-.1,9c-.8,1.9-2,3.4-3.8,3.4-2.3,0-3.8-2.1-3.7-5.6.2-9.6,6.2-12.5,11.2-12.5.7,0,1.3.2,1.9.2s.9-.4.9-1.5a2.87,2.87,0,0,0-3-2.9c-8.2-.1-16,5.2-16.2,16.4a7.57,7.57,0,0,0,.1,1.5c-.8,2.2-1.9,4.1-3.8,4.1A2.36,2.36,0,0,1,96.6,45l.5-31.2c0-2.9-1.3-4.3-3.5-4.3-.9,0-2.1.2-2.2.7s.7.6.6,2.6l-.2,11.8C84.5,25.5,78.2,30,78,40.2v1.4c-1.3,2.7-3.5,4.9-7.2,4.8a6.13,6.13,0,0,1-5.75-3.48l0,0c6.1-3.6,10.1-7.3,10.2-11.8.1-4-2.2-6.8-5.9-6.9-5.1-.1-10.6,5.1-10.7,13.6a19.34,19.34,0,0,0,.6,4.2,41.78,41.78,0,0,1-11.37,6.45C50.62,35.69,53.31,24.26,56.1,11c.8-2.6,1.7-3.2,1.1-3.7-1.4-1.2-5.5-.8-6.1,2.3-1.4,7.4-3.5,16.8-5.2,24a12.25,12.25,0,0,0-7.8,1.8C34.6,29.9,29.9,22.1,26,15.9c-1.5-2.4-5.6-1.6-6.5,0-.4.7.5.6,1.8,2.7C28.9,30,34.4,40.4,42.8,51.2a2.58,2.58,0,0,0,3,.87l0,.13,1.41-.68-1.31.68c3.8-.6,8.6-2.7,14.8-6.6a10.65,10.65,0,0,0,9.7,5.6,11.72,11.72,0,0,0,9.4-3.7,7.62,7.62,0,0,0,6.9,3.9,8.7,8.7,0,0,0,6-2.5,5.81,5.81,0,0,0,5,2.7,8,8,0,0,0,6.5-3.4,7.19,7.19,0,0,0,6.3,3.6,7.73,7.73,0,0,0,5.8-2.6,5.93,5.93,0,0,0,5.1,2.8,7.81,7.81,0,0,0,6-2.8c0,2.4,1.8,2.9,3.2,2.9,1.9,0,1.9-1.6,1.9-2.8l.2-9.8c.6-5.3,4.8-9.6,6.7-9.6,1.3,0,1.4,1.8,1.3,3.8l-.2,12.2c-.1,3.4,2,6.3,5.5,6.4a8.06,8.06,0,0,0,6.3-3.1,5.33,5.33,0,0,0,5.3,3.3,8,8,0,0,0,6.5-3.3,6.3,6.3,0,0,0,5.7,3.6c2.9,0,5.1-1.9,6.8-4.7a5.35,5.35,0,0,0,5.4,4.8c5.8.1,7.8-4.6,9.1-9a1.34,1.34,0,0,0,.1-.5C191.2,42.1,190,40.6,188.9,40.6ZM68.8,28.7c.9,0,1.4.9,1.4,2.4-.1,4-2.8,6-5.8,7.9,0-.4-.1-.8-.1-1.2C64.2,34.9,65.5,28.7,68.8,28.7Zm23,15.9a4.64,4.64,0,0,1-3.9,2.6c-2.3,0-4.5-2.1-4.4-6.9.1-8.4,4.2-11.4,8.6-12.2Z"/></svg>